<svg xmlns="http://www.w3.org/2000/svg" xmlns:xlink="http://www.w3.org/1999/xlink" width="500" zoomAndPan="magnify" viewBox="0 0 375 149.999998" height="200" preserveAspectRatio="xMidYMid meet" version="1.0"><defs><g/><clipPath id="c37eab1458"><path d="M 56.828125 57.773438 L 318.171875 57.773438 L 318.171875 75.570312 L 56.828125 75.570312 Z M 56.828125 57.773438 " clip-rule="nonzero"/></clipPath></defs><g fill="#fbfaf9" fill-opacity="1"><g transform="translate(31.010993, 106.695684)"><g><path d="M 71.566406 -83.867188 L 6.089844 -83.867188 L 6.089844 -48.578125 L 6.832031 -48.578125 C 9.691406 -52.679688 12.050781 -56.28125 14.289062 -59.390625 C 25.84375 -77.40625 28.824219 -81.628906 43.984375 -81.628906 L 44.976562 -81.628906 L 4.101562 -0.871094 L 4.101562 0 L 69.824219 0 L 69.824219 -35.285156 L 69.082031 -35.285156 C 66.347656 -31.183594 63.863281 -27.582031 61.75 -24.476562 C 50.070312 -6.460938 47.089844 -2.238281 31.929688 -2.238281 L 30.316406 -2.238281 L 71.566406 -82.996094 Z M 71.566406 -83.867188 "/></g></g></g><g fill="#fbfaf9" fill-opacity="1"><g transform="translate(103.071379, 106.695684)"><g><path d="M 83.492188 -83.867188 L 46.34375 -83.867188 L 46.34375 -83.121094 L 52.804688 -76.164062 L 52.804688 -41.746094 L 34.664062 -41.746094 L 34.664062 -76.164062 L 41 -83.121094 L 41 -83.867188 L 3.976562 -83.867188 L 3.976562 -83.121094 L 10.3125 -76.164062 L 10.3125 -7.703125 L 3.976562 -0.746094 L 3.976562 0 L 41 0 L 41 -0.746094 L 34.664062 -7.703125 L 34.664062 -39.511719 L 52.804688 -39.511719 L 52.804688 -7.703125 L 46.34375 -0.746094 L 46.34375 0 L 83.492188 0 L 83.492188 -0.746094 L 77.03125 -7.703125 L 77.03125 -76.164062 L 83.492188 -83.121094 Z M 83.492188 -83.867188 "/></g></g></g><g fill="#fbfaf9" fill-opacity="1"><g transform="translate(186.686303, 106.695684)"><g><path d="M 72.433594 -35.285156 C 69.703125 -31.183594 67.464844 -27.582031 65.476562 -24.476562 C 54.296875 -6.460938 51.4375 -2.238281 36.902344 -2.238281 L 34.914062 -2.238281 L 34.914062 -41.25 L 36.15625 -41.25 C 42.863281 -41.25 47.835938 -38.265625 55.660156 -24.105469 L 56.40625 -24.105469 L 56.40625 -60.507812 L 55.660156 -60.507812 C 47.710938 -45.347656 42.863281 -43.363281 36.15625 -43.363281 L 34.914062 -43.363281 L 34.914062 -81.628906 L 36.15625 -81.628906 C 50.691406 -81.628906 53.550781 -77.40625 64.730469 -59.390625 L 71.6875 -48.578125 L 72.433594 -48.578125 L 72.433594 -83.867188 L 3.976562 -83.867188 L 3.976562 -83.121094 L 10.683594 -76.660156 L 10.683594 -7.207031 L 3.976562 -0.746094 L 3.976562 0 L 73.179688 0 L 73.179688 -35.285156 Z M 72.433594 -35.285156 "/></g></g></g><g fill="#fbfaf9" fill-opacity="1"><g transform="translate(263.467904, 106.695684)"><g><path d="M 70.695312 -106.726562 L 44.976562 -106.726562 L 39.632812 -87.097656 L 40.503906 -87.097656 L 70.695312 -105.980469 Z M 72.433594 -35.285156 C 69.703125 -31.183594 67.464844 -27.582031 65.476562 -24.476562 C 54.296875 -6.460938 51.4375 -2.238281 36.902344 -2.238281 L 34.914062 -2.238281 L 34.914062 -41.25 L 36.15625 -41.25 C 42.863281 -41.25 47.835938 -38.265625 55.660156 -24.105469 L 56.40625 -24.105469 L 56.40625 -60.507812 L 55.660156 -60.507812 C 47.710938 -45.347656 42.863281 -43.363281 36.15625 -43.363281 L 34.914062 -43.363281 L 34.914062 -81.628906 L 36.15625 -81.628906 C 50.691406 -81.628906 53.550781 -77.40625 64.730469 -59.390625 L 71.6875 -48.578125 L 72.433594 -48.578125 L 72.433594 -83.867188 L 3.976562 -83.867188 L 3.976562 -83.121094 L 10.683594 -76.660156 L 10.683594 -7.207031 L 3.976562 -0.746094 L 3.976562 0 L 73.179688 0 L 73.179688 -35.285156 Z M 72.433594 -35.285156 "/></g></g></g><g clip-path="url(#c37eab1458)"><path fill="#231f20" d="M 56.828125 57.773438 L 318.164062 57.773438 L 318.164062 75.59375 L 56.828125 75.59375 Z M 56.828125 57.773438 " fill-opacity="1" fill-rule="nonzero"/></g><g fill="#fbfaf9" fill-opacity="1"><g transform="translate(121.437965, 69.195353)"><g><path d="M 5.652344 0.257812 C 7.546875 0.257812 9.105469 -0.46875 9.90625 -1.613281 L 9.917969 -1.613281 L 10.027344 0 L 11.273438 0 L 11.273438 -4.40625 L 4.0625 -4.40625 L 4.0625 -3.417969 L 9.78125 -3.417969 C 9.75 -1.980469 8.101562 -0.890625 6.019531 -0.890625 C 3.660156 -0.890625 1.96875 -2.148438 1.96875 -3.917969 C 1.96875 -5.710938 3.527344 -6.96875 5.71875 -6.957031 C 7.144531 -6.957031 8.480469 -6.320312 8.792969 -5.421875 L 10.226562 -5.742188 C 9.816406 -7.15625 7.890625 -8.136719 5.71875 -8.136719 C 2.617188 -8.136719 0.421875 -6.378906 0.421875 -3.882812 C 0.421875 -1.46875 2.59375 0.257812 5.652344 0.257812 Z M 5.652344 0.257812 "/></g></g></g><g fill="#fbfaf9" fill-opacity="1"><g transform="translate(142.008192, 69.195353)"><g><path d="M 3.917969 0 L 5.464844 0 L 5.464844 -2.859375 L 9.335938 -7.890625 L 7.566406 -7.890625 L 4.695312 -4.039062 L 4.6875 -4.039062 L 1.769531 -7.890625 L -0.0117188 -7.890625 L 3.917969 -2.859375 Z M 3.917969 0 "/></g></g></g><g fill="#fbfaf9" fill-opacity="1"><g transform="translate(160.252666, 69.195353)"><g><path d="M 0.554688 0 L 2.046875 0 L 2.046875 -6.277344 L 2.070312 -6.277344 L 5.5 0 L 7.046875 0 L 10.449219 -6.277344 L 10.472656 -6.277344 L 10.472656 0 L 11.964844 0 L 11.964844 -7.890625 L 9.792969 -7.890625 L 6.265625 -1.390625 L 6.253906 -1.390625 L 2.703125 -7.890625 L 0.554688 -7.890625 Z M 0.554688 0 "/></g></g></g><g fill="#fbfaf9" fill-opacity="1"><g transform="translate(181.67976, 69.195353)"><g/></g></g><g fill="#fbfaf9" fill-opacity="1"><g transform="translate(193.803824, 69.195353)"><g><path d="M 0.554688 0 L 2.105469 0 L 2.105469 -3.539062 L 7.992188 -3.539062 L 7.992188 0 L 9.527344 0 L 9.527344 -7.890625 L 7.992188 -7.890625 L 7.992188 -4.707031 L 2.105469 -4.707031 L 2.105469 -7.890625 L 0.554688 -7.890625 Z M 0.554688 0 "/></g></g></g><g fill="#fbfaf9" fill-opacity="1"><g transform="translate(212.793872, 69.195353)"><g><path d="M 4.996094 0.257812 C 7.769531 0.257812 9.558594 -1.125 9.558594 -3.59375 L 9.558594 -7.890625 L 8.011719 -7.890625 L 8.011719 -3.640625 C 8.011719 -1.871094 6.824219 -0.980469 5.007812 -0.980469 C 3.207031 -0.980469 2.003906 -1.871094 2.003906 -3.640625 L 2.003906 -7.890625 L 0.445312 -7.890625 L 0.445312 -3.59375 C 0.445312 -1.125 2.238281 0.257812 4.996094 0.257812 Z M 4.996094 0.257812 "/></g></g></g><g fill="#fbfaf9" fill-opacity="1"><g transform="translate(231.70603, 69.195353)"><g><path d="M 0.554688 0 L 6.609375 0 C 8.359375 0 9.492188 -0.867188 9.492188 -2.191406 C 9.492188 -3.09375 8.902344 -3.828125 8.003906 -4.039062 L 8.003906 -4.050781 C 8.769531 -4.285156 9.269531 -4.941406 9.269531 -5.742188 C 9.269531 -7.046875 8.203125 -7.890625 6.566406 -7.890625 L 0.554688 -7.890625 Z M 2.105469 -4.539062 L 2.105469 -6.84375 L 6.1875 -6.84375 C 7.121094 -6.84375 7.722656 -6.398438 7.722656 -5.6875 C 7.722656 -4.984375 7.121094 -4.539062 6.199219 -4.539062 Z M 2.105469 -1.046875 L 2.105469 -3.574219 L 6.210938 -3.574219 C 7.257812 -3.574219 7.945312 -3.0625 7.945312 -2.316406 C 7.945312 -1.546875 7.257812 -1.046875 6.210938 -1.046875 Z M 2.105469 -1.046875 "/></g></g></g><g fill="#fbfaf9" fill-opacity="1"><g transform="translate(250.332918, 69.195353)"><g/></g></g></svg>