<svg class="svg-icon" style="width: 1em; height: 1em;vertical-align: middle;fill: currentColor;overflow: hidden;" viewBox="0 0 1024 1024" version="1.1" xmlns="http://www.w3.org/2000/svg"><path d="M542.293333 481.706667a42.666667 42.666667 0 0 0-59.733333 0l-128 123.733333a42.666667 42.666667 0 1 0 58.88 61.44L469.333333 612.693333V853.333333a42.666667 42.666667 0 0 0 85.333334 0v-238.506666l55.04 55.466666a42.666667 42.666667 0 0 0 60.586666 0 42.666667 42.666667 0 0 0 0-60.586666z"  /><path d="M753.92 298.666667A256 256 0 0 0 270.08 298.666667a213.333333 213.333333 0 0 0-131.413333 352.853333A42.666667 42.666667 0 1 0 202.666667 597.333333 128 128 0 0 1 298.666667 384h4.266666a42.666667 42.666667 0 0 0 42.666667-34.133333 170.666667 170.666667 0 0 1 334.506667 0 42.666667 42.666667 0 0 0 42.666666 34.133333H725.333333a128 128 0 0 1 96 213.333333 42.666667 42.666667 0 0 0 3.84 60.586667 42.666667 42.666667 0 0 0 28.16 10.666667 42.666667 42.666667 0 0 0 32-14.506667A213.333333 213.333333 0 0 0 753.92 298.666667z"  /></svg>