<svg version="1.1" xmlns="http://www.w3.org/2000/svg" viewBox="0 0 1121.644999019595 1893.672634548611" width="3364.9349970587846" height="5681.017903645833">
  <!-- svg-source:excalidraw -->
  
  <defs>
    <style class="style-fonts">
      @font-face {
        font-family: "Virgil";
        src: url("https://excalidraw.com/Virgil.woff2");
      }
      @font-face {
        font-family: "Cascadia";
        src: url("https://excalidraw.com/Cascadia.woff2");
      }
    </style>
  </defs>
  <rect x="0" y="0" width="1121.644999019595" height="1893.672634548611" fill="#fff0f6"></rect><g stroke-linecap="round" transform="translate(11.45149391115541 59.831099252852425) rotate(0 233 262.0555555555556)"><path d="M32 0 M32 0 C152.65 1.4, 274.41 2.32, 434 0 M32 0 C186.38 0.55, 339.6 0.02, 434 0 M434 0 C456.08 1.62, 464.73 11.99, 466 32 M434 0 C454.38 -1.07, 466.22 9.69, 466 32 M466 32 C464.79 161.28, 465.49 289.98, 466 492.11 M466 32 C465.43 210.91, 465.99 389.06, 466 492.11 M466 492.11 C466.37 514.19, 456.99 525.95, 434 524.11 M466 492.11 C466.46 513.92, 455.38 523.92, 434 524.11 M434 524.11 C284.27 526.26, 136.4 526.04, 32 524.11 M434 524.11 C342.03 525.79, 250.63 525.85, 32 524.11 M32 524.11 C10.76 526.01, 0.78 513.76, 0 492.11 M32 524.11 C9.83 523.83, 1.03 512.41, 0 492.11 M0 492.11 C0.51 351.73, 0.22 212.56, 0 32 M0 492.11 C2.38 341.52, 1.94 191.65, 0 32 M0 32 C0.41 9.22, 11.13 1.5, 32 0 M0 32 C0.25 10.59, 12.34 -1.5, 32 0" stroke="#000000" stroke-width="1" fill="none"></path></g><g stroke-linecap="round" transform="translate(14.689589149250594 102.60887703063042) rotate(0 227.4444444444444 49.33333333333334)"><path d="M24.67 0 M24.67 0 C165.56 -2.42, 305.78 -2.46, 430.22 0 M24.67 0 C164.64 -0.48, 304.38 -1.19, 430.22 0 M430.22 0 C447.11 1.92, 455.45 8.54, 454.89 24.67 M430.22 0 C446.22 0.95, 452.62 8.98, 454.89 24.67 M454.89 24.67 C454.18 43.6, 456.91 62.6, 454.89 74 M454.89 24.67 C454.67 35.29, 455.9 43.85, 454.89 74 M454.89 74 C454.94 89.81, 446.74 97.74, 430.22 98.67 M454.89 74 C452.73 90.4, 447.21 100.77, 430.22 98.67 M430.22 98.67 C303.15 99.33, 176.2 98.32, 24.67 98.67 M430.22 98.67 C317.29 97.39, 205 97.77, 24.67 98.67 M24.67 98.67 C7 98.33, -0.51 91.6, 0 74 M24.67 98.67 C8.45 100.41, 1.77 89.93, 0 74 M0 74 C-0.69 61.39, -0.79 51.8, 0 24.67 M0 74 C-0.46 60.58, -0.68 47.99, 0 24.67 M0 24.67 C-0.66 8.03, 10.15 -1.66, 24.67 0 M0 24.67 C1.72 6.89, 7.83 1.83, 24.67 0" stroke="#000000" stroke-width="1" fill="none"></path></g><g stroke-linecap="round" transform="translate(16.30070026036168 217.4984712146582) rotate(0 224.44444444444446 68.33333333333334)"><path d="M32 0 M32 0 C153.18 -1.81, 272.09 -1.22, 416.89 0 M32 0 C149.56 1.69, 266.95 1.49, 416.89 0 M416.89 0 C439.03 0.13, 448.24 12.56, 448.89 32 M416.89 0 C437.75 1.05, 447.61 10.65, 448.89 32 M448.89 32 C446.91 49.74, 446.65 68.52, 448.89 104.67 M448.89 32 C448.38 55.07, 447.65 79.88, 448.89 104.67 M448.89 104.67 C448.5 126.21, 439.74 135.13, 416.89 136.67 M448.89 104.67 C447.97 127.8, 439.18 138.86, 416.89 136.67 M416.89 136.67 C292.74 138.11, 166.12 137.62, 32 136.67 M416.89 136.67 C320.21 134.34, 223.22 135.03, 32 136.67 M32 136.67 C10.63 134.92, 1.69 126.3, 0 104.67 M32 136.67 C9.66 134.85, -0.21 124.86, 0 104.67 M0 104.67 C1.99 80.8, 2.39 52.7, 0 32 M0 104.67 C-0.81 82.58, 0.55 62.36, 0 32 M0 32 C1.83 12.18, 11.86 0.46, 32 0 M0 32 C-2.01 11.95, 8.93 -1.92, 32 0" stroke="#000000" stroke-width="1" fill="none"></path></g><g stroke-linecap="round"><g transform="translate(11.062605022266496 98.60958232576934) rotate(0 232.27809616902638 -1.2420471507228115)"><path d="M-1.06 -0.21 C76.43 -0.69, 387.86 -2.04, 465.62 -2.28 M0.58 -1.36 C77.86 -1.69, 387.36 -0.38, 464.7 -0.77" stroke="#000000" stroke-width="1" fill="none"></path></g></g><mask></mask><g stroke-linecap="round"><g transform="translate(267.4118113714724 243.31186639694994) rotate(0 88.95873472553575 1.3393208201146933)"><path d="M0.92 -0.67 C30.53 -0.3, 148.56 2.9, 177.98 3.35 M-0.06 1.59 C29.39 2.17, 147.71 1.54, 177.13 1.82" stroke="#000000" stroke-width="1" fill="none"></path></g></g><mask></mask><g stroke-linecap="round"><g transform="translate(266.0086322014923 271.9725455768353) rotate(0 88.57907722783176 1.1624202202550293)"><path d="M0.69 0.35 C30.34 0.98, 147.88 2.63, 177.56 2.84 M-0.4 -0.51 C29.09 -0.15, 146.68 0.53, 176.5 1.04" stroke="#000000" stroke-width="1" fill="none"></path></g></g><mask></mask><g stroke-linecap="round"><g transform="translate(265.00863220149205 300.86143446572413) rotate(0 88.86205216762505 0.5957389849714048)"><path d="M0.56 -0.2 C30.21 0.27, 148.79 2.25, 178.33 2.54 M-0.61 -1.35 C28.9 -1.24, 148.06 -0.06, 177.68 0.58" stroke="#000000" stroke-width="1" fill="none"></path></g></g><mask></mask><g stroke-linecap="round"><g transform="translate(266.11974331260313 333.0836566879463) rotate(0 88.60050251593714 0.7125023552226963)"><path d="M0.6 -0.44 C30.31 0.08, 148.31 2.53, 177.74 3.14 M-0.54 -1.72 C29.06 -1.52, 147.34 0.98, 176.77 1.5" stroke="#000000" stroke-width="1" fill="none"></path></g></g><mask></mask><g stroke-linecap="round" transform="translate(60.74514470480591 246.64519973028325) rotate(0 81.11111111111109 40.55555555555557)"><path d="M20.28 0 M20.28 0 C69.29 0.01, 114.75 -0.22, 141.94 0 M20.28 0 C50.57 -0.48, 79.89 -1.09, 141.94 0 M141.94 0 C156.61 -1.33, 163.81 8.68, 162.22 20.28 M141.94 0 C157.6 -0.77, 162.94 6.32, 162.22 20.28 M162.22 20.28 C163.2 29.79, 161.17 36.29, 162.22 60.83 M162.22 20.28 C163.4 30.85, 162.06 41.06, 162.22 60.83 M162.22 60.83 C161.62 73.48, 154.49 80.17, 141.94 81.11 M162.22 60.83 C164.12 73.65, 156.93 83.33, 141.94 81.11 M141.94 81.11 C108.49 82.5, 76 80.16, 20.28 81.11 M141.94 81.11 C95.7 81.16, 51.24 81.73, 20.28 81.11 M20.28 81.11 C7.39 79.57, -0.42 74.29, 0 60.83 M20.28 81.11 C6.85 79, 0 74.91, 0 60.83 M0 60.83 C-0.41 49.93, 1.09 35.33, 0 20.28 M0 60.83 C0.05 51.47, -0.83 44.22, 0 20.28 M0 20.28 C0.01 5.21, 7.09 -0.39, 20.28 0 M0 20.28 C0.31 5.4, 6.95 -0.76, 20.28 0" stroke="#000000" stroke-width="1" fill="none"></path></g><g stroke-linecap="round"><g transform="translate(11.856255815917109 532.2007552858388) rotate(0 230.63584126547494 -1.3918995375848229)"><path d="M0.82 0.36 C77.84 -0.11, 384.81 -2.71, 461.49 -3.15 M-0.21 -0.49 C76.74 -0.81, 384.04 -2.02, 460.74 -2.09" stroke="#000000" stroke-width="1" fill="none"></path></g></g><mask></mask><g stroke-linecap="round" transform="translate(23.52292248258385 368.3118663969499) rotate(0 62.77777777777777 74.99999999999996)"><path d="M31.39 0 M31.39 0 C48.49 1.29, 63.09 0.88, 94.17 0 M31.39 0 C44.51 -0.97, 56.09 -0.31, 94.17 0 M94.17 0 C116.5 -0.95, 126.64 11.51, 125.56 31.39 M94.17 0 C114.28 1.22, 124.31 11.01, 125.56 31.39 M125.56 31.39 C126.68 50.13, 124.22 65.61, 125.56 118.61 M125.56 31.39 C124.62 59.19, 123.95 85.4, 125.56 118.61 M125.56 118.61 C126.74 138.62, 116.93 151.93, 94.17 150 M125.56 118.61 C126.71 141.79, 114.92 150.37, 94.17 150 M94.17 150 C74.15 149.93, 57.57 147.78, 31.39 150 M94.17 150 C77.43 150.14, 61.32 150.55, 31.39 150 M31.39 150 C10.02 149.95, 1.64 141.26, 0 118.61 M31.39 150 C8.2 147.72, 0.81 139.88, 0 118.61 M0 118.61 C1.59 87.72, 0 55.06, 0 31.39 M0 118.61 C0.04 95.62, -0.31 73.82, 0 31.39 M0 31.39 C1.83 9.04, 8.76 0.15, 31.39 0 M0 31.39 C-0.5 12.69, 9.09 -1.97, 31.39 0" stroke="#000000" stroke-width="1" fill="none"></path></g><g stroke-linecap="round" transform="translate(169.07847803813917 369.4229775080611) rotate(0 62.77777777777777 74.99999999999996)"><path d="M31.39 0 M31.39 0 C51.86 0.95, 73.3 0.56, 94.17 0 M31.39 0 C48.28 -0.66, 64.41 -1.26, 94.17 0 M94.17 0 C117.05 0.7, 124.73 9.09, 125.56 31.39 M94.17 0 C117.14 -1.13, 124.88 12.17, 125.56 31.39 M125.56 31.39 C124.23 53.16, 125.86 78.05, 125.56 118.61 M125.56 31.39 C125.69 51.45, 127.32 70, 125.56 118.61 M125.56 118.61 C126.59 137.83, 113.67 151.54, 94.17 150 M125.56 118.61 C125.92 139.42, 114 151.09, 94.17 150 M94.17 150 C72.37 151.7, 52.37 149.48, 31.39 150 M94.17 150 C80.11 149.26, 66.54 149.77, 31.39 150 M31.39 150 C8.75 148.88, -1.37 137.79, 0 118.61 M31.39 150 C11.35 149.58, -1.05 138.5, 0 118.61 M0 118.61 C-2.23 99.24, 0.94 82.81, 0 31.39 M0 118.61 C1.29 85.6, -0.29 52.39, 0 31.39 M0 31.39 C0.95 11.49, 11.87 0.84, 31.39 0 M0 31.39 C1 10.43, 10.16 1.82, 31.39 0" stroke="#000000" stroke-width="1" fill="none"></path></g><g stroke-linecap="round" transform="translate(329.07847803813917 367.2007552858388) rotate(0 62.77777777777777 74.99999999999996)"><path d="M31.39 0 M31.39 0 C54.1 0.98, 79.27 1.55, 94.17 0 M31.39 0 C48.72 -0.77, 65.83 -1.49, 94.17 0 M94.17 0 C115.39 -0.63, 123.9 10.18, 125.56 31.39 M94.17 0 C114.35 -1.97, 124.27 8.89, 125.56 31.39 M125.56 31.39 C124.98 49.02, 124.17 70.15, 125.56 118.61 M125.56 31.39 C125.75 55.18, 125.67 77.12, 125.56 118.61 M125.56 118.61 C127.16 141.46, 114.8 148.77, 94.17 150 M125.56 118.61 C124.4 140.62, 116.28 151.61, 94.17 150 M94.17 150 C72.44 151.58, 51.29 149.46, 31.39 150 M94.17 150 C71.37 149.2, 47.1 150.59, 31.39 150 M31.39 150 C8.7 150.46, -0.19 138.91, 0 118.61 M31.39 150 C10.14 148, 0.09 141.75, 0 118.61 M0 118.61 C-2.05 101.27, -0.92 83.53, 0 31.39 M0 118.61 C-0.56 90.74, 0.5 63.74, 0 31.39 M0 31.39 C-0.79 12.03, 9.2 -0.8, 31.39 0 M0 31.39 C-1.33 10.27, 9.08 0.61, 31.39 0" stroke="#000000" stroke-width="1" fill="none"></path></g><g transform="translate(135.18958914925025 32.08964417472771) rotate(0 52.5 12.5)"><text x="0" y="18" font-family="Virgil, Segoe UI Emoji" font-size="20px" fill="#000000" text-anchor="start" style="white-space: pre;" direction="ltr">Home Page</text></g><g stroke-linecap="round" transform="translate(33.867717057209234 707.349260602679) rotate(0 232.99999999999997 262.0555555555556)"><path d="M32 0 M32 0 C170.39 -2.11, 309.25 -2.76, 434 0 M32 0 C145.27 -2.31, 258.17 -1.66, 434 0 M434 0 C456.42 -1.36, 465.5 10.65, 466 32 M434 0 C455.16 0.27, 466.89 8.39, 466 32 M466 32 C464.61 178.8, 464.95 327.21, 466 492.11 M466 32 C466.03 212.25, 466.16 392.76, 466 492.11 M466 492.11 C464.5 514.58, 454.72 526.05, 434 524.11 M466 492.11 C464.23 511.28, 454.88 522.32, 434 524.11 M434 524.11 C275.04 524.39, 115.24 524.67, 32 524.11 M434 524.11 C326.06 525.87, 218.66 525.64, 32 524.11 M32 524.11 C12.06 522.5, 1.18 513.79, 0 492.11 M32 524.11 C8.45 526.34, -0.25 514.04, 0 492.11 M0 492.11 C-0.55 379.6, -1.25 265.82, 0 32 M0 492.11 C-1.33 388.55, -1.12 285.84, 0 32 M0 32 C0.14 10.71, 10.24 -1.31, 32 0 M0 32 C-0.14 12.77, 11.99 -0.17, 32 0" stroke="#000000" stroke-width="1" fill="none"></path></g><g stroke-linecap="round" transform="translate(37.10581229530442 762.9841812375998) rotate(0 227.44444444444443 19.333333333333357)"><path d="M9.67 0 M9.67 0 C145.63 0.47, 281.15 0.27, 445.22 0 M9.67 0 C139.03 -0.87, 269.47 -0.72, 445.22 0 M445.22 0 C450.31 -0.5, 454.87 3.08, 454.89 9.67 M445.22 0 C451.93 0.89, 452.61 3.7, 454.89 9.67 M454.89 9.67 C453.35 14.97, 455.19 20.47, 454.89 29 M454.89 9.67 C454.25 15.63, 454.27 20.8, 454.89 29 M454.89 29 C456.02 34.83, 453.6 37.13, 445.22 38.67 M454.89 29 C452.73 34.99, 449.88 40.88, 445.22 38.67 M445.22 38.67 C277.23 39.1, 110.05 38.95, 9.67 38.67 M445.22 38.67 C294.66 36.69, 144.17 37.33, 9.67 38.67 M9.67 38.67 C1.61 39.85, 0.35 33.52, 0 29 M9.67 38.67 C5.45 38.42, 0.6 34.19, 0 29 M0 29 C0.7 21.57, -1.25 14.47, 0 9.67 M0 29 C-0.84 21.92, 0.1 15.85, 0 9.67 M0 9.67 C0.05 2.79, 1.91 -0.12, 9.67 0 M0 9.67 C2.11 4.55, 3.06 0.09, 9.67 0" stroke="#000000" stroke-width="1" fill="none"></path></g><g stroke-linecap="round"><g transform="translate(33.47882816832032 746.1277436755959) rotate(0 231.94636855741754 -0.48558711926555986)"><path d="M0.01 -0.88 C77.61 -1.22, 387.58 -2.11, 465.33 -2.24 M-1.44 1.27 C76 1.15, 386.32 0.12, 464.26 -0.72" stroke="#000000" stroke-width="1" fill="none"></path></g></g><mask></mask><g stroke-linecap="round"><g transform="translate(34.27247896197093 1179.7189166356648) rotate(0 230.07477969374088 -1.5325212439439042)"><path d="M-1.17 0.28 C75.56 -0.07, 384.41 -1.1, 461.32 -1.57 M0.41 -0.61 C76.92 -1.36, 383.43 -3.22, 460.48 -3.35" stroke="#000000" stroke-width="1" fill="none"></path></g></g><mask></mask><g transform="translate(157.60581229530402 679.6078055245542) rotate(0 99.5 12.5)"><text x="0" y="18" font-family="Virgil, Segoe UI Emoji" font-size="20px" fill="#000000" text-anchor="start" style="white-space: pre;" direction="ltr">Video Tutorial Page</text></g><g stroke-linecap="round" transform="translate(54.713398673060226 774.8892085968505) rotate(0 91.4285714285715 7.857142857142861)"><path d="M3.93 0 M3.93 0 C74.22 -2.77, 143.87 -2.37, 178.93 0 M3.93 0 C46.08 1.74, 89.76 1.24, 178.93 0 M178.93 0 C182.67 0.79, 184.66 2.35, 182.86 3.93 M178.93 0 C182.49 2.07, 184.93 2.11, 182.86 3.93 M182.86 3.93 C182.19 5.59, 183.08 7.31, 182.86 11.79 M182.86 3.93 C182.59 6.33, 183.21 8.47, 182.86 11.79 M182.86 11.79 C182.79 13.65, 182.81 17.2, 178.93 15.71 M182.86 11.79 C184.84 13.15, 181.68 16.95, 178.93 15.71 M178.93 15.71 C123.85 14.15, 69.29 15.35, 3.93 15.71 M178.93 15.71 C128.73 15.08, 80.79 15.37, 3.93 15.71 M3.93 15.71 C-0.33 13.96, 0.81 13.7, 0 11.79 M3.93 15.71 C3.59 16.21, -2 14.07, 0 11.79 M0 11.79 C-0.43 10.06, -0.75 7.54, 0 3.93 M0 11.79 C-0.21 10.31, 0.46 8.64, 0 3.93 M0 3.93 C1.64 -0.31, 1.82 0.56, 3.93 0 M0 3.93 C1.51 -0.85, -0.45 0.27, 3.93 0" stroke="#000000" stroke-width="1" fill="none"></path></g><g stroke-linecap="round"><g transform="translate(263.28482724448867 779.1749228825647) rotate(0 12.364804365376926 -0.2923875235097597)"><path d="M0.11 -0.47 C4.08 -0.31, 19.8 0.92, 23.64 1.19 M-1.29 -1.76 C3.09 -1.92, 21.56 -0.51, 26.02 -0.31" stroke="#000000" stroke-width="1" fill="none"></path></g></g><mask></mask><g stroke-linecap="round"><g transform="translate(319.49145145054075 778.0387389775029) rotate(0 11.792102523094911 0.30087020319940905)"><path d="M-0.66 -0.96 C3.24 -1.02, 19.91 -0.07, 24.24 0.01 M1.2 1.15 C4.86 1.27, 19.28 1.64, 23.27 1.55" stroke="#000000" stroke-width="1" fill="none"></path></g></g><mask></mask><g stroke-linecap="round"><g transform="translate(362.34859430768364 779.4673104060744) rotate(0 12.265106481307157 -0.7135815571048454)"><path d="M0.42 -0.27 C4.58 -0.47, 21.45 -1.03, 25.35 -0.98 M-0.82 -1.46 C3.24 -1.56, 21.03 -0.43, 24.96 0.04" stroke="#000000" stroke-width="1" fill="none"></path></g></g><mask></mask><g stroke-linecap="round"><g transform="translate(402.34859430768364 780.8958818346459) rotate(0 12.207934195606924 -0.5038328339159506)"><path d="M1.18 0 C5.34 -0.09, 20.36 -0.86, 24.07 -0.98 M0.34 -1.05 C4.41 -0.97, 18.75 -0.17, 23.01 0.04" stroke="#000000" stroke-width="1" fill="none"></path></g></g><mask></mask><g stroke-linecap="round"><g transform="translate(443.7771657362543 780.8958818346459) rotate(0 11.761454013346622 -0.43645918317096744)"><path d="M-0.02 -0.35 C4.06 -0.53, 21.11 -0.78, 25.01 -0.55 M-1.49 -1.57 C2.45 -1.65, 19.9 0.56, 24.44 0.7" stroke="#000000" stroke-width="1" fill="none"></path></g></g><mask></mask><g stroke-linecap="round" transform="translate(46.22133518099662 824.1749228825648) rotate(0 47.06349206349199 50.714285714285666)"><path d="M23.53 0 M23.53 0 C38.42 -0.53, 51.8 1.39, 70.6 0 M23.53 0 C38.91 -1.03, 52.18 0.7, 70.6 0 M70.6 0 C86.55 -1.15, 94.7 9.09, 94.13 23.53 M70.6 0 C88.03 -0.53, 93.55 8.26, 94.13 23.53 M94.13 23.53 C95.16 44.78, 93.6 62.9, 94.13 77.9 M94.13 23.53 C93.58 35.43, 93.63 45.59, 94.13 77.9 M94.13 77.9 C94.84 94.77, 84.37 101.49, 70.6 101.43 M94.13 77.9 C94.68 94.92, 87.36 103.24, 70.6 101.43 M70.6 101.43 C51.4 102.5, 34.53 102.65, 23.53 101.43 M70.6 101.43 C56.7 100.78, 44.76 101.38, 23.53 101.43 M23.53 101.43 C9.53 103.22, -1.55 93.44, 0 77.9 M23.53 101.43 C7.75 101.67, -2.06 92.37, 0 77.9 M0 77.9 C-0.83 59.95, 1.59 43.07, 0 23.53 M0 77.9 C-0.58 60.61, -0.62 43.24, 0 23.53 M0 23.53 C0.37 6.4, 7.04 -1.5, 23.53 0 M0 23.53 C-1.71 6.37, 10.11 1.02, 23.53 0" stroke="#000000" stroke-width="1" fill="none"></path></g><g stroke-linecap="round" transform="translate(628.911805280801 1359.5615234375) rotate(0 233 262.0555555555556)"><path d="M32 0 M32 0 C157.56 -0.42, 284.78 0.29, 434 0 M32 0 C186.68 -1.54, 341.93 -0.97, 434 0 M434 0 C456.92 -1.71, 464.68 9.34, 466 32 M434 0 C456.62 0.56, 467.54 12.38, 466 32 M466 32 C467.1 191.17, 467.17 348.32, 466 492.11 M466 32 C466.94 168.48, 466.66 304.49, 466 492.11 M466 492.11 C466.08 514.93, 454.55 525.14, 434 524.11 M466 492.11 C465.96 513.55, 454.43 522.28, 434 524.11 M434 524.11 C299.82 525.53, 166.58 525.38, 32 524.11 M434 524.11 C280.2 521.74, 125.19 522.41, 32 524.11 M32 524.11 C9.28 522.96, 1.81 514.31, 0 492.11 M32 524.11 C9.09 524.38, -1.2 512.37, 0 492.11 M0 492.11 C2.5 373.82, 2.12 254.24, 0 32 M0 492.11 C-0.61 341.29, 0.17 191.21, 0 32 M0 32 C1.51 11.14, 11.45 -0.56, 32 0 M0 32 C1.83 10.81, 12.3 1.72, 32 0" stroke="#000000" stroke-width="1" fill="none"></path></g><g stroke-linecap="round" transform="translate(632.1499005188964 1415.1964440724205) rotate(0 227.44444444444446 19.33333333333337)"><path d="M9.67 0 M9.67 0 C116.38 1.6, 224.2 2.05, 445.22 0 M9.67 0 C138.51 1.29, 267.91 1.84, 445.22 0 M445.22 0 C449.96 -1.32, 453.56 4.34, 454.89 9.67 M445.22 0 C452.22 1.54, 456.6 4.23, 454.89 9.67 M454.89 9.67 C456.69 15.9, 454.37 24.25, 454.89 29 M454.89 9.67 C455.84 15.89, 455.65 22.76, 454.89 29 M454.89 29 C456.37 34.66, 452.69 38.63, 445.22 38.67 M454.89 29 C455 34.54, 449.83 39.41, 445.22 38.67 M445.22 38.67 C333.08 36.97, 221.31 38.19, 9.67 38.67 M445.22 38.67 C350.23 39.83, 256.21 39.86, 9.67 38.67 M9.67 38.67 C2.07 40.48, 0.87 34.07, 0 29 M9.67 38.67 C3.49 37.47, -1.07 34.49, 0 29 M0 29 C1.48 25.39, 0.23 21.31, 0 9.67 M0 29 C-0.74 23.73, 0.13 17.85, 0 9.67 M0 9.67 C0.48 4, 2.66 1.59, 9.67 0 M0 9.67 C0.14 4.85, 4.94 2.17, 9.67 0" stroke="#000000" stroke-width="1" fill="none"></path></g><g stroke-linecap="round"><g transform="translate(628.5229163919123 1398.3400065104167) rotate(0 232.61381931060714 -1.1416272056485468)"><path d="M-0.54 0.49 C77.09 0.4, 388.1 -0.87, 465.77 -1.19 M1.37 -0.29 C78.87 -0.65, 387.71 -2.26, 464.94 -2.78" stroke="#000000" stroke-width="1" fill="none"></path></g></g><mask></mask><g stroke-linecap="round"><g transform="translate(629.3165671855629 1831.931179470484) rotate(0 230.71631371162414 -1.027862282386991)"><path d="M0.49 0.22 C77.62 -0.07, 385.24 -1.73, 462.14 -2.27 M-0.71 -0.72 C76.41 -0.76, 384.69 -0.53, 461.73 -0.76" stroke="#000000" stroke-width="1" fill="none"></path></g></g><mask></mask><g stroke-linecap="round" transform="translate(640.9832338522294 1698.0422905815954) rotate(0 50.63492063492072 60)"><path d="M25.32 0 M25.32 0 C39.93 -0.17, 52.41 -1.39, 75.95 0 M25.32 0 C40.73 -1.3, 53.89 -1.11, 75.95 0 M75.95 0 C93.95 0.48, 102.61 9.93, 101.27 25.32 M75.95 0 C93.84 1.82, 100.62 6.97, 101.27 25.32 M101.27 25.32 C100.79 53.55, 102.52 80.83, 101.27 94.68 M101.27 25.32 C101.09 52.54, 100.66 78.8, 101.27 94.68 M101.27 94.68 C101.23 111.65, 92.05 118.4, 75.95 120 M101.27 94.68 C102.01 110.56, 94.85 118.62, 75.95 120 M75.95 120 C65 118.02, 48.97 121.07, 25.32 120 M75.95 120 C63.83 119.65, 54 120.66, 25.32 120 M25.32 120 C7.06 120.23, -1.04 110.63, 0 94.68 M25.32 120 C7.49 117.99, -0.95 113.09, 0 94.68 M0 94.68 C0.36 68.98, 0.5 41.04, 0 25.32 M0 94.68 C0.27 78.94, -0.09 62.44, 0 25.32 M0 25.32 C1.59 8.56, 9.86 1.49, 25.32 0 M0 25.32 C2.17 6.78, 8.26 0.4, 25.32 0" stroke="#000000" stroke-width="1" fill="none"></path></g><g transform="translate(111.22132909032473 1306.1057826450894) rotate(0 56.99999999999997 12.5)"><text x="0" y="18" font-family="Virgil, Segoe UI Emoji" font-size="20px" fill="#000000" text-anchor="start" style="white-space: pre;" direction="ltr">Store Page</text></g><g stroke-linecap="round" transform="translate(649.7574868966519 1427.1014714316711) rotate(0 91.42857142857144 7.85714285714289)"><path d="M3.93 0 M3.93 0 C55.49 0.54, 109.28 2.72, 178.93 0 M3.93 0 C42.06 1.4, 79.74 1.91, 178.93 0 M178.93 0 C182.43 1.58, 182.3 0.03, 182.86 3.93 M178.93 0 C183.76 -1.3, 182.3 1.21, 182.86 3.93 M182.86 3.93 C183.56 6.33, 183.41 9.27, 182.86 11.79 M182.86 3.93 C182.82 6.89, 182.67 9.5, 182.86 11.79 M182.86 11.79 C183.5 13.53, 183.31 14.51, 178.93 15.71 M182.86 11.79 C181.69 13.57, 180.07 17.64, 178.93 15.71 M178.93 15.71 C139.43 15.46, 103.77 15.55, 3.93 15.71 M178.93 15.71 C135.8 16.59, 93.53 16.01, 3.93 15.71 M3.93 15.71 C0.48 13.96, -0.83 15.74, 0 11.79 M3.93 15.71 C2.98 16.3, 0.18 15.03, 0 11.79 M0 11.79 C-0.57 9.92, 0.14 7.55, 0 3.93 M0 11.79 C0.28 9.27, 0.25 6.99, 0 3.93 M0 3.93 C1.89 -0.13, 1.15 0.35, 3.93 0 M0 3.93 C0.47 3.4, 1.38 2.08, 3.93 0" stroke="#000000" stroke-width="1" fill="none"></path></g><g stroke-linecap="round"><g transform="translate(858.3289154680808 1431.3871857173854) rotate(0 11.840613759665644 -0.31862133934055237)"><path d="M-0.14 -0.36 C3.96 -0.07, 21.45 1.02, 25.35 0.95 M-1.67 -1.59 C2.3 -1.56, 20.41 -0.96, 24.96 -0.68" stroke="#000000" stroke-width="1" fill="none"></path></g></g><mask></mask><g stroke-linecap="round"><g transform="translate(914.5355396741331 1430.2510018123235) rotate(0 12.438985641247541 0.018745798990153162)"><path d="M-0.36 1.06 C3.98 0.91, 21.26 -0.71, 25.23 -1.02 M1.66 0.57 C5.99 0.55, 20.73 0.05, 24.79 -0.02" stroke="#000000" stroke-width="1" fill="none"></path></g></g><mask></mask><g stroke-linecap="round"><g transform="translate(957.392682531276 1431.679573240895) rotate(0 12.797852389833906 0.07846305258573238)"><path d="M1.06 0.95 C4.96 0.88, 19.52 -0.75, 23.26 -0.79 M0.16 0.4 C4.43 0.5, 21.14 0.62, 25.44 0.33" stroke="#000000" stroke-width="1" fill="none"></path></g></g><mask></mask><g stroke-linecap="round"><g transform="translate(997.3926825312758 1433.1081446694666) rotate(0 12.888921201567086 -0.018662051578019145)"><path d="M0.95 -1.02 C4.92 -1.33, 19.49 -1.02, 23.49 -0.8 M-0.01 1.05 C4.38 1.4, 21.7 0.21, 25.79 0.32" stroke="#000000" stroke-width="1" fill="none"></path></g></g><mask></mask><g stroke-linecap="round"><g transform="translate(1038.821253959847 1433.1081446694666) rotate(0 12.379845667092923 0.1523004899918874)"><path d="M-1.02 -0.79 C2.71 -0.84, 19.22 0.4, 23.49 0.67 M0.64 1.41 C4.67 0.93, 21.9 -0.68, 25.78 -1.1" stroke="#000000" stroke-width="1" fill="none"></path></g></g><mask></mask><g stroke-linecap="round" transform="translate(639.4118113714721 1487.9844466920886) rotate(0 224.44444444444446 91.1904761904762)"><path d="M32 0 M32 0 C175.31 0.85, 318.49 1.26, 416.89 0 M32 0 C124.69 -0.63, 216.62 0.31, 416.89 0 M416.89 0 C439.15 1.9, 448.54 12.06, 448.89 32 M416.89 0 C440.35 0.98, 447.56 8.95, 448.89 32 M448.89 32 C448.14 61.11, 449.99 93.21, 448.89 150.38 M448.89 32 C450.12 63.13, 448.5 94.36, 448.89 150.38 M448.89 150.38 C450.86 171.08, 438.14 181.2, 416.89 182.38 M448.89 150.38 C447.39 170.68, 437.37 182.26, 416.89 182.38 M416.89 182.38 C320.89 181.23, 223.6 182.53, 32 182.38 M416.89 182.38 C334.92 182.37, 253.41 183.14, 32 182.38 M32 182.38 C12.23 182.02, -1.29 170.32, 0 150.38 M32 182.38 C11.05 184.68, -0.6 171.15, 0 150.38 M0 150.38 C1.03 122, 0.98 93.32, 0 32 M0 150.38 C-0.62 113.52, -1.13 77.92, 0 32 M0 32 C0.09 11.55, 12.42 1.9, 32 0 M0 32 C-1.52 12.81, 11.13 -1.1, 32 0" stroke="#000000" stroke-width="1" fill="none"></path></g><g stroke-linecap="round"><g transform="translate(890.5229224825832 1532.369270445808) rotate(0 89.41660576900358 1.1977709211885212)"><path d="M-0.36 -0.31 C28.94 0.18, 147.36 1.71, 176.93 2.33 M1.65 -1.52 C31.23 -0.77, 149.54 3.39, 179.19 3.92" stroke="#000000" stroke-width="1" fill="none"></path></g></g><mask></mask><g stroke-linecap="round"><g transform="translate(889.1197433126035 1561.0299496256926) rotate(0 88.78446210668324 0.905512571065799)"><path d="M-0.31 -0.85 C29.44 -0.54, 148.01 0.99, 177.88 1.5 M1.72 1.32 C31.38 1.8, 147.48 2.29, 176.99 2.66" stroke="#000000" stroke-width="1" fill="none"></path></g></g><mask></mask><g stroke-linecap="round"><g transform="translate(888.1197433126031 1589.9188385145812) rotate(0 89.27055499141932 1.2404330168116076)"><path d="M-0.85 0.1 C28.72 0.72, 147.28 2.91, 177.06 3.37 M0.9 -0.89 C30.89 -0.55, 150.03 1.55, 179.39 1.85" stroke="#000000" stroke-width="1" fill="none"></path></g></g><mask></mask><g stroke-linecap="round"><g transform="translate(889.2308544237144 1622.1410607368034) rotate(0 88.81144340258925 1.5364622254959386)"><path d="M0.1 -0.72 C29.98 -0.2, 149.2 1.95, 178.92 2.24 M-1.3 1.52 C28.54 2.31, 148.69 3.76, 178.58 3.79" stroke="#000000" stroke-width="1" fill="none"></path></g></g><mask></mask><g stroke-linecap="round" transform="translate(679.5705415302023 1511.4168894934278) rotate(0 81.11111111111109 63.41269841269843)"><path d="M31.71 0 M31.71 0 C56.26 0.63, 78.09 -1.4, 130.52 0 M31.71 0 C60.6 -0.64, 88.29 0.47, 130.52 0 M130.52 0 C152.5 -1.16, 160.73 9.67, 162.22 31.71 M130.52 0 C152.44 -2.03, 160.9 9.33, 162.22 31.71 M162.22 31.71 C163.11 52.58, 164.22 74.95, 162.22 95.12 M162.22 31.71 C162.47 45.92, 162.2 59.57, 162.22 95.12 M162.22 95.12 C161.32 115.51, 151.55 125.87, 130.52 126.83 M162.22 95.12 C160.68 116.18, 153.58 124.74, 130.52 126.83 M130.52 126.83 C96.52 126.16, 59.92 125.2, 31.71 126.83 M130.52 126.83 C91.99 126.95, 53.12 127.77, 31.71 126.83 M31.71 126.83 C12.56 126.31, -0.49 115.24, 0 95.12 M31.71 126.83 C8.6 128.46, 0.02 117.52, 0 95.12 M0 95.12 C0.71 76.16, -0.29 55.35, 0 31.71 M0 95.12 C0.87 79.17, 1.38 60.81, 0 31.71 M0 31.71 C1.87 10.97, 9.61 1.59, 31.71 0 M0 31.71 C-1.34 12.85, 11.57 0.38, 31.71 0" stroke="#000000" stroke-width="1" fill="none"></path></g><g stroke-linecap="round" transform="translate(770.3641923238526 1697.7463514539918) rotate(0 50.63492063492072 60)"><path d="M25.32 0 M25.32 0 C36.12 1.31, 48.92 -1.19, 75.95 0 M25.32 0 C41.92 0.18, 58.31 0.12, 75.95 0 M75.95 0 C91.74 -1.99, 101.17 8.47, 101.27 25.32 M75.95 0 C93.4 -1.05, 99.42 10.15, 101.27 25.32 M101.27 25.32 C100.95 45.69, 101.57 61.66, 101.27 94.68 M101.27 25.32 C101.69 51.39, 101.03 77.82, 101.27 94.68 M101.27 94.68 C99.47 110.63, 91.82 118.86, 75.95 120 M101.27 94.68 C101.51 112.23, 90.75 118.84, 75.95 120 M75.95 120 C60.7 118.2, 41.72 119.83, 25.32 120 M75.95 120 C63.95 119.69, 52.11 119.76, 25.32 120 M25.32 120 C6.62 119.58, -0.09 109.6, 0 94.68 M25.32 120 C8.65 118.91, 0.49 109.72, 0 94.68 M0 94.68 C1.18 78.88, 2.18 61.75, 0 25.32 M0 94.68 C-0.2 69.12, 0.13 42.96, 0 25.32 M0 25.32 C0.96 7.92, 7.56 -0.5, 25.32 0 M0 25.32 C0.04 6.85, 6.92 0.22, 25.32 0" stroke="#000000" stroke-width="1" fill="none"></path></g><g stroke-linecap="round" transform="translate(897.50704946671 1696.3177800254202) rotate(0 50.63492063492072 60)"><path d="M25.32 0 M25.32 0 C39.22 1.36, 57.16 0.74, 75.95 0 M25.32 0 C41.49 -0.66, 57.06 -0.26, 75.95 0 M75.95 0 C91.69 0.21, 101.85 6.63, 101.27 25.32 M75.95 0 C91.68 0.91, 100.87 7.63, 101.27 25.32 M101.27 25.32 C100.72 51.41, 102.13 80.82, 101.27 94.68 M101.27 25.32 C100.63 41.92, 100.77 60.3, 101.27 94.68 M101.27 94.68 C99.31 111.74, 91.88 120.42, 75.95 120 M101.27 94.68 C99.43 110.27, 90.91 120.63, 75.95 120 M75.95 120 C60.15 121.74, 43.31 118.95, 25.32 120 M75.95 120 C59.52 120.69, 44.51 119.76, 25.32 120 M25.32 120 C7.94 120.04, -1.38 110.24, 0 94.68 M25.32 120 C8.66 117.85, -0.32 113.31, 0 94.68 M0 94.68 C-0.64 75.85, -0.84 53.97, 0 25.32 M0 94.68 C1.41 73.81, 1.14 52.02, 0 25.32 M0 25.32 C-0.51 8.25, 8.2 1.92, 25.32 0 M0 25.32 C1.48 7.52, 7.72 -0.68, 25.32 0" stroke="#000000" stroke-width="1" fill="none"></path></g><g stroke-linecap="round"><g transform="translate(53.28482724448821 940.6034943111362) rotate(0 41.26321159135014 -0.38832576571161326)"><path d="M0.48 -0.07 C14.11 -0.05, 67.24 0.44, 80.85 0.57 M-0.73 -1.15 C13.38 -1.53, 69.52 -1.24, 83.26 -1.25" stroke="#000000" stroke-width="1" fill="none"></path></g></g><mask></mask><g stroke-linecap="round"><g transform="translate(51.16447279599532 953.8489629339906) rotate(0 40.57767893909872 0.31002565428613593)"><path d="M1.15 -0.55 C14.75 -0.47, 67.31 0.7, 80.87 0.64 M0.29 1.77 C13.75 1.49, 65.96 -0.85, 79.62 -1.15" stroke="#000000" stroke-width="1" fill="none"></path></g></g><mask></mask><g stroke-linecap="round" transform="translate(169.07847803813905 823.4515632934969) rotate(0 47.06349206349199 50.714285714285666)"><path d="M23.53 0 M23.53 0 C34.59 -0.44, 48.69 1.36, 70.6 0 M23.53 0 C36.45 0.56, 49.98 0.96, 70.6 0 M70.6 0 C88.23 1.78, 92.97 7.95, 94.13 23.53 M70.6 0 C84.05 -0.32, 93.32 8.15, 94.13 23.53 M94.13 23.53 C92.55 38.53, 95.13 51.49, 94.13 77.9 M94.13 23.53 C94.31 39.55, 94.14 56.81, 94.13 77.9 M94.13 77.9 C93.13 95.02, 84.9 102.8, 70.6 101.43 M94.13 77.9 C92.86 92.41, 87.73 99.82, 70.6 101.43 M70.6 101.43 C54.31 102.87, 36.69 100.06, 23.53 101.43 M70.6 101.43 C57.7 101.22, 43.03 101.89, 23.53 101.43 M23.53 101.43 C8.29 103.23, 0.49 92.67, 0 77.9 M23.53 101.43 C9.03 101.89, 2.02 92.72, 0 77.9 M0 77.9 C-1.6 59.35, -1.52 43.9, 0 23.53 M0 77.9 C0.3 56.71, 0.56 38.19, 0 23.53 M0 23.53 C-0.51 9.29, 6.75 -0.28, 23.53 0 M0 23.53 C0.41 9.23, 8.19 -1.19, 23.53 0" stroke="#000000" stroke-width="1" fill="none"></path></g><g stroke-linecap="round"><g transform="translate(176.14197010163065 939.8801347220682) rotate(0 40.57040385204763 -0.3301709137226112)"><path d="M-0.7 -0.26 C12.87 -0.13, 68.21 0.94, 81.84 0.82 M1.13 -1.45 C14.55 -1.65, 67.94 -1.09, 81.11 -0.87" stroke="#000000" stroke-width="1" fill="none"></path></g></g><mask></mask><g stroke-linecap="round"><g transform="translate(172.02161565313753 953.1256033449228) rotate(0 40.99291362139792 0.31865958077833056)"><path d="M-0.26 0.41 C13.44 0.48, 68.79 -0.17, 82.25 -0.32 M1.8 -0.41 C15.42 -0.11, 68.22 0.88, 81.73 1.05" stroke="#000000" stroke-width="1" fill="none"></path></g></g><mask></mask><g stroke-linecap="round" transform="translate(277.6499066095677 826.6703859451738) rotate(0 47.06349206349199 50.714285714285666)"><path d="M23.53 0 M23.53 0 C37.96 1.43, 52.87 -0.07, 70.6 0 M23.53 0 C34.79 -1.24, 44.17 -0.41, 70.6 0 M70.6 0 C84.32 0.5, 94.77 7.35, 94.13 23.53 M70.6 0 C84.22 1.39, 93.8 8.95, 94.13 23.53 M94.13 23.53 C95.15 43.39, 94.34 62.55, 94.13 77.9 M94.13 23.53 C93.3 44.41, 94.6 64.2, 94.13 77.9 M94.13 77.9 C93.64 95.5, 87.73 101.4, 70.6 101.43 M94.13 77.9 C93.01 92.54, 86.04 100.9, 70.6 101.43 M70.6 101.43 C61.39 102.68, 49.72 102.52, 23.53 101.43 M70.6 101.43 C57.7 101.95, 45.35 101.12, 23.53 101.43 M23.53 101.43 C7.22 101.93, -1.12 93.19, 0 77.9 M23.53 101.43 C6.88 101.64, 0.93 95.71, 0 77.9 M0 77.9 C-1.36 56.69, 0.46 37.47, 0 23.53 M0 77.9 C0.44 65.73, 0.66 51.7, 0 23.53 M0 23.53 C0.27 8.85, 6.98 1.73, 23.53 0 M0 23.53 C-1.69 6.95, 8.6 0.98, 23.53 0" stroke="#000000" stroke-width="1" fill="none"></path></g><g stroke-linecap="round"><g transform="translate(284.7133986730593 943.0989573737452) rotate(0 40.74465933247865 1.0042078317529501)"><path d="M0.35 1.08 C14.26 0.95, 69.06 0.49, 82.41 0.19 M-0.93 0.6 C13.01 0.61, 68.02 1.89, 81.98 1.82" stroke="#000000" stroke-width="1" fill="none"></path></g></g><mask></mask><g stroke-linecap="round"><g transform="translate(280.5930442245662 956.3444259965995) rotate(0 40.902442115176655 0.021646912023442155)"><path d="M1.08 0.99 C14.52 0.77, 68.35 -0.91, 81.61 -0.94 M0.19 0.46 C13.41 0.33, 66.93 0.36, 80.76 0.1" stroke="#000000" stroke-width="1" fill="none"></path></g></g><mask></mask><g stroke-linecap="round" transform="translate(400.50704946671016 825.9470263561059) rotate(0 47.06349206349199 50.714285714285666)"><path d="M23.53 0 M23.53 0 C39.33 -1.96, 53.27 0.97, 70.6 0 M23.53 0 C41.5 -0.89, 59.9 0.42, 70.6 0 M70.6 0 C85.79 -1.8, 95.34 7.56, 94.13 23.53 M70.6 0 C87.39 1.68, 95.36 5.63, 94.13 23.53 M94.13 23.53 C92.45 43.21, 92.73 58.7, 94.13 77.9 M94.13 23.53 C95.04 36.97, 95.51 51.61, 94.13 77.9 M94.13 77.9 C94.1 92.62, 85.38 101.22, 70.6 101.43 M94.13 77.9 C93.6 91.51, 86.09 102.3, 70.6 101.43 M70.6 101.43 C55.83 100.49, 40.48 102.12, 23.53 101.43 M70.6 101.43 C57.62 101.04, 45.98 100.79, 23.53 101.43 M23.53 101.43 C7.45 100.59, 0.19 94.4, 0 77.9 M23.53 101.43 C9.97 102.66, -0.28 94.61, 0 77.9 M0 77.9 C-1.45 64.16, -0.1 51.31, 0 23.53 M0 77.9 C-1 60.3, 0.19 42, 0 23.53 M0 23.53 C1.73 6.37, 7.06 0.66, 23.53 0 M0 23.53 C0.98 7.94, 8.83 0.89, 23.53 0" stroke="#000000" stroke-width="1" fill="none"></path></g><g stroke-linecap="round"><g transform="translate(407.57054153020175 942.3755977846772) rotate(0 40.9107812990008 0.11706930795565995)"><path d="M0.19 -0.94 C13.45 -0.97, 66.97 0.84, 80.68 0.81 M-1.18 1.18 C12.38 0.73, 69.1 -0.62, 83 -0.88" stroke="#000000" stroke-width="1" fill="none"></path></g></g><mask></mask><g stroke-linecap="round"><g transform="translate(403.45018708170863 955.6210664075318) rotate(0 40.65032448965519 0.36132904719562475)"><path d="M-0.94 -0.75 C12.6 -0.61, 68.7 0.92, 82.24 1 M0.76 1.47 C14.13 1.27, 68.08 -0.5, 81.72 -0.59" stroke="#000000" stroke-width="1" fill="none"></path></g></g><mask></mask><g stroke-linecap="round"><g transform="translate(48.87505064912119 1117.9589321274798) rotate(0 40.83710111006556 0.45972000673418734)"><path d="M-0.95 0.42 C12.42 0.59, 66.63 -0.06, 80.44 -0.14 M0.75 -0.4 C14.47 0.06, 69.19 1.05, 82.63 1.32" stroke="#000000" stroke-width="1" fill="none"></path></g></g><mask></mask><g stroke-linecap="round" transform="translate(164.66870144277158 1000.8070011098405) rotate(0 47.06349206349199 50.714285714285666)"><path d="M23.53 0 M23.53 0 C31.47 -0.4, 43.47 -0.24, 70.6 0 M23.53 0 C38.67 -0.15, 52.94 0.02, 70.6 0 M70.6 0 C84.84 1.86, 92.89 7.19, 94.13 23.53 M70.6 0 C84.52 -0.16, 93.82 7.03, 94.13 23.53 M94.13 23.53 C92.55 36.7, 94.15 47.99, 94.13 77.9 M94.13 23.53 C95.09 35.15, 93.76 45.19, 94.13 77.9 M94.13 77.9 C95.11 94.46, 84.37 99.67, 70.6 101.43 M94.13 77.9 C94.33 94.47, 85.42 102.38, 70.6 101.43 M70.6 101.43 C59.38 101.36, 48.47 99.92, 23.53 101.43 M70.6 101.43 C54.61 101.22, 37.52 101.21, 23.53 101.43 M23.53 101.43 C8.51 102.46, 0.44 93.19, 0 77.9 M23.53 101.43 C6.58 102.25, -1.65 95.45, 0 77.9 M0 77.9 C-1.45 57.88, -1.39 39.98, 0 23.53 M0 77.9 C-1.47 62.45, -0.72 46.43, 0 23.53 M0 23.53 C-1.48 6.93, 6.05 1.86, 23.53 0 M0 23.53 C-1.49 6.21, 7.39 2.14, 23.53 0" stroke="#000000" stroke-width="1" fill="none"></path></g><g stroke-linecap="round"><g transform="translate(171.73219350626317 1117.2355725384118) rotate(0 40.446296824993766 0.1061062650382496)"><path d="M-0.99 -0.14 C12.81 -0.22, 68.11 -0.07, 81.89 -0.04 M0.69 -1.26 C14.46 -1.17, 67.78 1.04, 81.18 1.47" stroke="#000000" stroke-width="1" fill="none"></path></g></g><mask></mask><g stroke-linecap="round"><g transform="translate(167.61183905776983 1130.4810411612666) rotate(0 39.85609555252293 -0.5898734755264172)"><path d="M-0.14 0.46 C13.35 0.66, 67.79 0.51, 81.39 0.25 M-1.67 -0.35 C11.62 -0.44, 66.69 -1.73, 80.42 -1.73" stroke="#000000" stroke-width="1" fill="none"></path></g></g><mask></mask><g stroke-linecap="round" transform="translate(273.2401300142005 1004.0258237615175) rotate(0 47.06349206349199 50.714285714285666)"><path d="M23.53 0 M23.53 0 C33.69 0.25, 43.99 -2.01, 70.6 0 M23.53 0 C37.34 -0.33, 52.9 -0.23, 70.6 0 M70.6 0 C85.63 -1.54, 93.99 7.58, 94.13 23.53 M70.6 0 C85.47 -2.06, 93.19 8.07, 94.13 23.53 M94.13 23.53 C96.16 34.19, 94.98 48.21, 94.13 77.9 M94.13 23.53 C94.11 44.99, 94.9 64.51, 94.13 77.9 M94.13 77.9 C92.37 93.76, 87.06 100.68, 70.6 101.43 M94.13 77.9 C95.07 91.96, 88.24 101.22, 70.6 101.43 M70.6 101.43 C55.97 102.44, 42.82 100.28, 23.53 101.43 M70.6 101.43 C52.75 101.99, 35.38 101.88, 23.53 101.43 M23.53 101.43 C7.45 100.33, 0.72 92.15, 0 77.9 M23.53 101.43 C9.71 102.47, 2.1 92.93, 0 77.9 M0 77.9 C-0.04 64.08, 2.34 51.78, 0 23.53 M0 77.9 C0.32 65.89, -0.79 54.46, 0 23.53 M0 23.53 C1.86 6.55, 6.43 -0.4, 23.53 0 M0 23.53 C2.14 9.16, 7.67 -0.83, 23.53 0" stroke="#000000" stroke-width="1" fill="none"></path></g><g stroke-linecap="round"><g transform="translate(280.3036220776916 1120.4543951900891) rotate(0 39.955252180028936 -0.4218181539326906)"><path d="M-0.04 0.25 C13.55 0, 67.85 -0.94, 81.43 -1.1 M-1.52 -0.66 C11.93 -0.85, 66.79 -0.29, 80.49 -0.14" stroke="#000000" stroke-width="1" fill="none"></path></g></g><mask></mask><g stroke-linecap="round"><g transform="translate(276.1832676291987 1133.6998638129435) rotate(0 40.69742093305496 0.2701452134549527)"><path d="M0.25 0.01 C13.57 0.02, 66.92 0.19, 80.33 0.03 M-1.07 -1.04 C12.56 -0.81, 68.41 1.44, 82.47 1.58" stroke="#000000" stroke-width="1" fill="none"></path></g></g><mask></mask><g stroke-linecap="round"><g transform="translate(399.0404104863414 1132.9765042238755) rotate(0 40.002194151658784 -0.09641963409950449)"><path d="M0.01 -1.1 C13.59 -1.26, 68.05 -0.8, 81.45 -0.7 M-1.45 0.94 C11.98 0.9, 66.48 0.53, 80.52 0.47" stroke="#000000" stroke-width="1" fill="none"></path></g></g><mask></mask><g stroke-linecap="round" transform="translate(46.221335180996164 1002.0229918649255) rotate(0 47.06349206349199 50.714285714285666)"><path d="M23.53 0 M23.53 0 C39.28 -1.03, 58.48 0.96, 70.6 0 M23.53 0 C33.54 -0.15, 42 -0.12, 70.6 0 M70.6 0 C86.68 0.7, 95.2 8.81, 94.13 23.53 M70.6 0 C84.98 1.72, 96.3 8.6, 94.13 23.53 M94.13 23.53 C95.41 36.96, 92.67 50.54, 94.13 77.9 M94.13 23.53 C93.35 38.56, 94.13 54.53, 94.13 77.9 M94.13 77.9 C92.6 93.2, 86.92 99.57, 70.6 101.43 M94.13 77.9 C94.99 94.98, 88.4 99.9, 70.6 101.43 M70.6 101.43 C55.28 101.73, 36.95 100.62, 23.53 101.43 M70.6 101.43 C52.77 101.33, 34.06 101.59, 23.53 101.43 M23.53 101.43 C8.98 100.78, -1.67 91.75, 0 77.9 M23.53 101.43 C9.59 99.21, 1.44 94.48, 0 77.9 M0 77.9 C1.94 65.94, 1.67 57.58, 0 23.53 M0 77.9 C0.08 58.73, 1 40.21, 0 23.53 M0 23.53 C-0.12 7.4, 5.97 1.37, 23.53 0 M0 23.53 C2.12 7.67, 7.44 -1.09, 23.53 0" stroke="#000000" stroke-width="1" fill="none"></path></g><g stroke-linecap="round"><g transform="translate(53.28482724448776 1118.4515632934967) rotate(0 40.10705789524525 -0.20252001956100685)"><path d="M-1.1 -0.89 C12.56 -0.65, 67.75 0.27, 81.31 0.3 M0.53 1.26 C14.07 1.22, 66.62 -1.5, 80.3 -1.66" stroke="#000000" stroke-width="1" fill="none"></path></g></g><mask></mask><g stroke-linecap="round"><g transform="translate(51.16447279599464 1131.697031916351) rotate(0 40.42023281428425 -0.6719370683748593)"><path d="M-0.89 -0.12 C12.93 -0.12, 68.12 -0.99, 81.73 -1.14 M0.85 -1.23 C14.63 -1.03, 67.81 -0.37, 80.94 -0.2" stroke="#000000" stroke-width="1" fill="none"></path></g></g><mask></mask><g stroke-linecap="round" transform="translate(389.07847803813905 1004.8801347220684) rotate(0 47.06349206349199 50.714285714285666)"><path d="M23.53 0 M23.53 0 C36.74 0.84, 51.4 1.78, 70.6 0 M23.53 0 C42.65 -0.72, 60.23 -0.14, 70.6 0 M70.6 0 C86.43 1.6, 93.18 6.31, 94.13 23.53 M70.6 0 C85.38 -0.43, 92.57 7.27, 94.13 23.53 M94.13 23.53 C93.91 41.83, 93.7 62.89, 94.13 77.9 M94.13 23.53 C94.98 41.23, 93.37 60.36, 94.13 77.9 M94.13 77.9 C95.4 94.56, 84.58 102.24, 70.6 101.43 M94.13 77.9 C93.83 94.68, 84.96 102.24, 70.6 101.43 M70.6 101.43 C56.06 101.56, 40.37 100.49, 23.53 101.43 M70.6 101.43 C58.41 101.35, 47.17 100.69, 23.53 101.43 M23.53 101.43 C6.85 101.77, -1.85 93.92, 0 77.9 M23.53 101.43 C5.98 100.5, 0.67 93.19, 0 77.9 M0 77.9 C-1.78 60.17, -0.99 43.47, 0 23.53 M0 77.9 C0 64.44, -0.56 51.12, 0 23.53 M0 23.53 C-0.67 7.35, 6.85 -0.23, 23.53 0 M0 23.53 C0.85 5.75, 7.25 1.71, 23.53 0" stroke="#000000" stroke-width="1" fill="none"></path></g><g stroke-linecap="round"><g transform="translate(396.14197010163065 1121.3087061506399) rotate(0 40.54657372805684 0.22065670757262978)"><path d="M-0.4 0.49 C13.17 0.68, 67.68 1.12, 81.49 1.06 M1.59 -0.29 C15.01 -0.42, 67.14 -0.81, 80.58 -0.51" stroke="#000000" stroke-width="1" fill="none"></path></g></g><mask></mask><g stroke-linecap="round"><g transform="translate(394.02161565313753 1134.5541747734942) rotate(0 40.88914647295536 0.046707700971580834)"><path d="M0.49 0.07 C14.25 0.31, 68.98 1.01, 82.48 1.05 M-0.71 -0.94 C12.99 -0.98, 68.5 -0.98, 82.09 -0.52" stroke="#000000" stroke-width="1" fill="none"></path></g></g><mask></mask><g stroke-linecap="round" transform="translate(645.4832338522292 708.1329520089288) rotate(0 233 262.0555555555556)"><path d="M32 0 M32 0 C158.96 -1.01, 286.82 -1.83, 434 0 M32 0 C131.17 1.22, 230.04 0.87, 434 0 M434 0 C454.47 1.23, 465.93 11.43, 466 32 M434 0 C454.66 0.51, 467.09 10.71, 466 32 M466 32 C463.49 156.62, 463.05 280.7, 466 492.11 M466 32 C463.58 181.46, 464.49 331.14, 466 492.11 M466 492.11 C465.49 515.39, 454.64 523.66, 434 524.11 M466 492.11 C467.09 514.52, 456.29 522.81, 434 524.11 M434 524.11 C309.44 523.19, 184.51 522.38, 32 524.11 M434 524.11 C346.32 523.91, 259.18 524.1, 32 524.11 M32 524.11 C11.35 524.63, -1.99 513.54, 0 492.11 M32 524.11 C8.82 522.95, -0.25 515.23, 0 492.11 M0 492.11 C-0.81 348.81, 0.37 204.35, 0 32 M0 492.11 C0.23 370.8, 0.67 249.93, 0 32 M0 32 C-1.65 8.82, 11.64 1.63, 32 0 M0 32 C0.91 8.47, 10.36 0.01, 32 0" stroke="#000000" stroke-width="1" fill="none"></path></g><g stroke-linecap="round" transform="translate(648.7213290903246 763.7678726438498) rotate(0 227.44444444444446 19.33333333333337)"><path d="M9.67 0 M9.67 0 C156.12 0.95, 302.06 1.18, 445.22 0 M9.67 0 C170.08 -0.37, 329.92 -0.4, 445.22 0 M445.22 0 C452.89 -0.07, 455.65 2.64, 454.89 9.67 M445.22 0 C452.18 1.09, 454.93 2.52, 454.89 9.67 M454.89 9.67 C456.42 11.74, 456.72 18.07, 454.89 29 M454.89 9.67 C454.22 14.64, 454.15 17.49, 454.89 29 M454.89 29 C456.83 34.75, 451.22 39.61, 445.22 38.67 M454.89 29 C455.96 36.41, 450.37 38.92, 445.22 38.67 M445.22 38.67 C301.57 40.24, 157.1 38.82, 9.67 38.67 M445.22 38.67 C343.14 36.51, 241.65 37.03, 9.67 38.67 M9.67 38.67 C3.74 36.68, 0.09 33.84, 0 29 M9.67 38.67 C2.06 38.42, 1.78 35.73, 0 29 M0 29 C0.79 24.34, -0.63 16.12, 0 9.67 M0 29 C-0.48 23.94, -0.03 17.58, 0 9.67 M0 9.67 C-1.85 4.19, 4.85 0.79, 9.67 0 M0 9.67 C-2.2 2.91, 3.23 1.31, 9.67 0" stroke="#000000" stroke-width="1" fill="none"></path></g><g stroke-linecap="round"><g transform="translate(645.0943449633405 746.9114350818459) rotate(0 233.14738989656587 -0.8157181474111184)"><path d="M-0.26 -0.91 C77.08 -1.23, 386.66 -2.56, 464.43 -2.86 M1.81 1.23 C79.47 1.14, 389.18 -1.18, 466.55 -1.66" stroke="#000000" stroke-width="1" fill="none"></path></g></g><mask></mask><g stroke-linecap="round"><g transform="translate(645.8879957569911 1180.5026080419148) rotate(0 230.96940621674577 -1.1041711699321013)"><path d="M-0.91 -1.13 C75.99 -1.32, 383.55 -1.24, 460.47 -1.41 M0.82 0.9 C78.2 0.39, 386.38 -2.83, 462.85 -3.11" stroke="#000000" stroke-width="1" fill="none"></path></g></g><mask></mask><g transform="translate(769.2213290903242 680.3914969308042) rotate(0 54 12.5)"><text x="0" y="18" font-family="Virgil, Segoe UI Emoji" font-size="20px" fill="#000000" text-anchor="start" style="white-space: pre;" direction="ltr">Video Page</text></g><g stroke-linecap="round" transform="translate(666.3289154680801 775.6729000031003) rotate(0 91.42857142857156 7.857142857142861)"><path d="M3.93 0 M3.93 0 C44.56 0.11, 82.65 1.97, 178.93 0 M3.93 0 C50.67 0.72, 96.56 0.46, 178.93 0 M178.93 0 C181.99 0.95, 182.9 0.7, 182.86 3.93 M178.93 0 C179.36 1.16, 181.71 3.02, 182.86 3.93 M182.86 3.93 C182.21 4.99, 182.16 6.68, 182.86 11.79 M182.86 3.93 C183.19 6.91, 182.72 10.35, 182.86 11.79 M182.86 11.79 C183.79 15.24, 180.42 15.94, 178.93 15.71 M182.86 11.79 C183.55 13.37, 182.59 15.91, 178.93 15.71 M178.93 15.71 C115.11 14.49, 52.31 12.6, 3.93 15.71 M178.93 15.71 C138.63 15.32, 97.86 15.51, 3.93 15.71 M3.93 15.71 C0.3 15.5, 1.55 14.65, 0 11.79 M3.93 15.71 C1.65 17.95, -1.22 15.57, 0 11.79 M0 11.79 C-0.18 8.86, -0.52 5.52, 0 3.93 M0 11.79 C-0.36 9.41, 0.32 6.82, 0 3.93 M0 3.93 C-1.91 1.04, 1.32 1.14, 3.93 0 M0 3.93 C-0.32 1.01, -0.47 1.81, 3.93 0" stroke="#000000" stroke-width="1" fill="none"></path></g><g stroke-linecap="round"><g transform="translate(874.900344039509 779.9586142888145) rotate(0 12.082222220956282 -0.5971325817671556)"><path d="M0.81 -0.49 C5.06 -0.28, 20.55 0.56, 24.38 0.62 M-0.22 -1.8 C3.98 -1.88, 19.64 -1.66, 23.49 -1.17" stroke="#000000" stroke-width="1" fill="none"></path></g></g><mask></mask><g stroke-linecap="round"><g transform="translate(931.1069682455609 778.8224303837528) rotate(0 12.20691694760967 -0.014863345848041831)"><path d="M-0.49 0.1 C3.76 -0.11, 20.8 -0.33, 24.91 -0.44 M1.45 -0.89 C5.66 -1.01, 20.64 0.63, 24.29 0.87" stroke="#000000" stroke-width="1" fill="none"></path></g></g><mask></mask><g stroke-linecap="round"><g transform="translate(973.964111102704 780.2510018123244) rotate(0 11.270098481385958 0.6143652380802678)"><path d="M0.1 0.62 C3.94 0.68, 19.9 -0.15, 23.85 -0.13 M-1.31 -0.1 C2.26 0.2, 18.66 1.53, 22.67 1.34" stroke="#000000" stroke-width="1" fill="none"></path></g></g><mask></mask><g stroke-linecap="round"><g transform="translate(1013.964111102704 781.6795732408957) rotate(0 11.822741869383435 -0.48117406921461736)"><path d="M0.62 -0.44 C4.73 -0.54, 20.09 -0.58, 24.16 -0.52 M-0.51 -1.71 C3.47 -1.66, 18.95 0.26, 23.14 0.75" stroke="#000000" stroke-width="1" fill="none"></path></g></g><mask></mask><g stroke-linecap="round"><g transform="translate(1055.3926825312747 781.6795732408957) rotate(0 11.666080275869831 -0.30954945787301824)"><path d="M-0.44 -0.13 C3.51 -0.11, 19.66 0.64, 23.77 0.74 M1.53 -1.24 C5.27 -1.62, 18.9 -0.93, 22.55 -1" stroke="#000000" stroke-width="1" fill="none"></path></g></g><mask></mask><g stroke-linecap="round" transform="translate(656.836851976017 827.8157571459576) rotate(0 222.06349206349182 97.85714285714283)"><path d="M32 0 M32 0 C165.22 0.98, 299.42 0.7, 412.13 0 M32 0 C134.92 -1.27, 237.24 -0.78, 412.13 0 M412.13 0 C432.46 1.49, 442.18 12.46, 444.13 32 M412.13 0 C434.04 -2.1, 442.59 8.41, 444.13 32 M444.13 32 C444.9 66.15, 444.72 95.96, 444.13 163.71 M444.13 32 C444.18 77.87, 445.04 123.06, 444.13 163.71 M444.13 163.71 C445.03 185.22, 434.6 194.44, 412.13 195.71 M444.13 163.71 C442.22 183.52, 433.73 193.83, 412.13 195.71 M412.13 195.71 C330.1 194.9, 246.07 194.64, 32 195.71 M412.13 195.71 C329.03 195.54, 245.08 196.05, 32 195.71 M32 195.71 C9.6 196.73, 1.48 184.59, 0 163.71 M32 195.71 C9.82 195.13, 0.04 183.49, 0 163.71 M0 163.71 C-2 128.83, 0.62 99.26, 0 32 M0 163.71 C1.26 119.55, 1.12 74.13, 0 32 M0 32 C-1.55 12.24, 12.07 1.95, 32 0 M0 32 C-1.38 12.2, 11.78 -0.74, 32 0" stroke="#000000" stroke-width="1" fill="none"></path></g><g stroke-linecap="round"><g transform="translate(660.6146297537937 1057.101471431672) rotate(0 111.14829129858748 -0.34974450882566543)"><path d="M-0.52 0.74 C36.69 0.83, 185.64 0.54, 222.81 0.46 M1.41 0.08 C38.5 -0.18, 185.15 -1.7, 221.84 -1.42" stroke="#000000" stroke-width="1" fill="none"></path></g></g><mask></mask><g stroke-linecap="round"><g transform="translate(660.7079645173294 1128.803656434147) rotate(0 215.02495981543723 -2.1533204575468403)"><path d="M0.2 -1.15 C72.25 -2.2, 359.24 -4.56, 431.2 -5.16 M-1.15 0.86 C70.82 0.45, 358.03 -3.32, 430.13 -4.09" stroke="#000000" stroke-width="1" fill="none"></path></g></g><mask></mask><g stroke-linecap="round"><g transform="translate(661.5455817147647 1094.185386197255) rotate(0 215.3687486191413 -2.7639768577579957)"><path d="M-0.69 -0.09 C71.26 -0.87, 359.43 -4.9, 431.43 -5.43 M1.14 -1.19 C72.97 -1.79, 358.93 -3.84, 430.48 -4.5" stroke="#000000" stroke-width="1" fill="none"></path></g></g><mask></mask><g transform="translate(648.9276843873452 1305.967263842386) rotate(0 101.5 12.5)"><text x="0" y="18" font-family="Virgil, Segoe UI Emoji" font-size="20px" fill="#000000" text-anchor="start" style="white-space: pre;" direction="ltr">Product detail Page</text></g><g stroke-linecap="round" transform="translate(16.91180528080099 1339.6495884486608) rotate(0 233.00000000000003 262.05555555555566)"><path d="M32 0 M32 0 C147.42 2.3, 265.12 1.65, 434 0 M32 0 C152.78 -1.52, 272.69 -0.62, 434 0 M434 0 C453.56 0.77, 464.93 10.97, 466 32 M434 0 C455.43 -1.72, 467.47 10.74, 466 32 M466 32 C465.67 212.1, 465.17 389.47, 466 492.11 M466 32 C466.18 204.66, 466.2 377.14, 466 492.11 M466 492.11 C465.88 512.64, 454.53 522.97, 434 524.11 M466 492.11 C467.23 512.92, 453.31 523.97, 434 524.11 M434 524.11 C345.18 524.35, 253.93 524.84, 32 524.11 M434 524.11 C325 525.91, 216.81 526.14, 32 524.11 M32 524.11 C11.56 522.57, -0.29 515.08, 0 492.11 M32 524.11 C10.67 524.58, -2.18 513.37, 0 492.11 M0 492.11 C0.45 385.83, -0.69 279.13, 0 32 M0 492.11 C-1.9 345.64, -1.37 199.08, 0 32 M0 32 C1.29 12, 12.03 -1.11, 32 0 M0 32 C-0.64 9.59, 10.52 0.05, 32 0" stroke="#000000" stroke-width="1" fill="none"></path></g><g stroke-linecap="round" transform="translate(20.149900518896175 1395.2845090835817) rotate(0 227.44444444444443 19.33333333333337)"><path d="M9.67 0 M9.67 0 C166.93 2.19, 322.66 1.7, 445.22 0 M9.67 0 C173.45 -1.16, 338.39 -1.13, 445.22 0 M445.22 0 C452.44 -1.07, 455.19 3.31, 454.89 9.67 M445.22 0 C449.95 1.47, 454.97 5.28, 454.89 9.67 M454.89 9.67 C456.65 14.69, 452.9 21.28, 454.89 29 M454.89 9.67 C455.2 15.5, 455.05 21.79, 454.89 29 M454.89 29 C454.08 34.64, 450.52 39.73, 445.22 38.67 M454.89 29 C454.36 33.42, 451.53 36.9, 445.22 38.67 M445.22 38.67 C275.64 39.62, 106.7 40, 9.67 38.67 M445.22 38.67 C355.42 36.76, 265.62 37.08, 9.67 38.67 M9.67 38.67 C1.68 38.38, 1.63 35.45, 0 29 M9.67 38.67 C3.7 36.48, -0.08 33.88, 0 29 M0 29 C0.69 22.15, 0.57 17.16, 0 9.67 M0 29 C0.07 22.13, -0.09 15.32, 0 9.67 M0 9.67 C1.33 4.59, 2.12 -0.56, 9.67 0 M0 9.67 C-1.08 3.07, 3.27 -1.59, 9.67 0" stroke="#000000" stroke-width="1" fill="none"></path></g><g stroke-linecap="round"><g transform="translate(16.522916391912077 1378.4280715215777) rotate(0 233.097517198527 -0.8196676808512393)"><path d="M1.11 0.58 C78.88 0.37, 388.4 -1.85, 465.96 -2.22 M0.23 -0.16 C77.94 -0.09, 387.57 -0.1, 465.23 -0.68" stroke="#000000" stroke-width="1" fill="none"></path></g></g><mask></mask><g stroke-linecap="round"><g transform="translate(17.31656718556269 1812.0192444816469) rotate(0 230.27036715046086 -1.2644974017525783)"><path d="M0.58 0.41 C77.59 0.01, 384.26 -0.92, 461.11 -1.3 M-0.57 -0.42 C76.36 -0.63, 383.19 -2.34, 460.16 -2.94" stroke="#000000" stroke-width="1" fill="none"></path></g></g><mask></mask><g stroke-linecap="round" transform="translate(37.757486896651926 1407.1895364428324) rotate(0 91.42857142857147 7.85714285714289)"><path d="M3.93 0 M3.93 0 C66.46 0.99, 126.54 -1.4, 178.93 0 M3.93 0 C40.46 1.02, 76.37 1.59, 178.93 0 M178.93 0 C180.06 1.28, 182.93 3.1, 182.86 3.93 M178.93 0 C180.69 -1.69, 184 3.58, 182.86 3.93 M182.86 3.93 C182.9 6.63, 182.54 8.77, 182.86 11.79 M182.86 3.93 C182.7 5.92, 182.64 8.43, 182.86 11.79 M182.86 11.79 C182.4 12.65, 181.43 14.17, 178.93 15.71 M182.86 11.79 C184.9 14.87, 183.25 15.28, 178.93 15.71 M178.93 15.71 C136.37 16.57, 95.9 16.02, 3.93 15.71 M178.93 15.71 C129.04 16.35, 81.51 16.5, 3.93 15.71 M3.93 15.71 C1.72 13.81, -0.07 13.04, 0 11.79 M3.93 15.71 C1.66 16.29, 1.91 15.28, 0 11.79 M0 11.79 C0.52 9.62, -0.69 7.72, 0 3.93 M0 11.79 C0.27 9.47, -0.21 6.51, 0 3.93 M0 3.93 C-0.94 1.18, 1.35 -1.38, 3.93 0 M0 3.93 C0.82 0.42, 0.89 -1.47, 3.93 0" stroke="#000000" stroke-width="1" fill="none"></path></g><g stroke-linecap="round"><g transform="translate(246.32891546808042 1411.4752507285466) rotate(0 12.301541037171091 -0.12450437303840545)"><path d="M0.92 0.59 C4.96 0.45, 20.95 -0.92, 24.66 -0.84 M-0.05 -0.14 C3.83 -0.15, 19.65 0.35, 23.9 0.26" stroke="#000000" stroke-width="1" fill="none"></path></g></g><mask></mask><g stroke-linecap="round"><g transform="translate(302.53553967413274 1410.3390668234847) rotate(0 12.581821388046194 -0.3756269741803635)"><path d="M0.59 0.37 C4.5 0.03, 19.32 -0.88, 23.45 -1.12 M-0.55 -0.48 C3.73 -0.8, 21.43 -0.2, 25.72 -0.17" stroke="#000000" stroke-width="1" fill="none"></path></g></g><mask></mask><g stroke-linecap="round"><g transform="translate(345.3926825312754 1411.7676382520563) rotate(0 12.196433910748851 0.24665928225965672)"><path d="M0.37 -0.84 C4.08 -0.76, 19.36 0.84, 23.16 1.06 M-0.89 1.33 C3.09 1.05, 20.88 -0.01, 25.29 -0.51" stroke="#000000" stroke-width="1" fill="none"></path></g></g><mask></mask><g stroke-linecap="round"><g transform="translate(385.3926825312754 1413.1962096806278) rotate(0 12.253186483628042 -0.16304349110902194)"><path d="M-0.84 -1.12 C3.29 -1.36, 21.08 -1.14, 25.35 -1.06 M0.92 0.9 C4.93 0.74, 21.07 0.01, 24.96 -0.08" stroke="#000000" stroke-width="1" fill="none"></path></g></g><mask></mask><g stroke-linecap="round"><g transform="translate(426.82125395984605 1413.1962096806278) rotate(0 12.127303773074345 -0.16009376440968026)"><path d="M-1.12 1.06 C2.69 1.28, 19.09 0.61, 23.22 0.46 M0.49 0.57 C4.63 0.5, 21.7 -1.58, 25.38 -1.41" stroke="#000000" stroke-width="1" fill="none"></path></g></g><mask></mask><g stroke-linecap="round" transform="translate(29.26542340458832 1456.4752507285468) rotate(0 47.06349206349199 50.714285714285666)"><path d="M23.53 0 M23.53 0 C32.58 0.36, 44.11 -0.11, 70.6 0 M23.53 0 C37.88 0.59, 51.8 -1.04, 70.6 0 M70.6 0 C87.28 1.97, 94.07 5.93, 94.13 23.53 M70.6 0 C88.01 0.34, 95.22 7.14, 94.13 23.53 M94.13 23.53 C93.86 40.26, 93.17 57.46, 94.13 77.9 M94.13 23.53 C93.94 41.97, 94.89 62.14, 94.13 77.9 M94.13 77.9 C95.61 93.21, 84.93 101.92, 70.6 101.43 M94.13 77.9 C93.44 91.44, 87.87 99.54, 70.6 101.43 M70.6 101.43 C55.41 100.28, 38.14 103.45, 23.53 101.43 M70.6 101.43 C56.43 100.3, 42.49 101.23, 23.53 101.43 M23.53 101.43 C9.5 102.19, -0.78 94.23, 0 77.9 M23.53 101.43 C8.27 103.04, -0.35 91.64, 0 77.9 M0 77.9 C1.14 62.67, 1.21 43.67, 0 23.53 M0 77.9 C0.28 62.41, 0.61 47.91, 0 23.53 M0 23.53 C-0.36 6.56, 8.04 -0.42, 23.53 0 M0 23.53 C1.8 7.47, 7.7 0.17, 23.53 0" stroke="#000000" stroke-width="1" fill="none"></path></g><g stroke-linecap="round"><g transform="translate(36.32891546807991 1572.9038221571182) rotate(0 41.05008982136309 0.7391987599431786)"><path d="M-1.06 0.46 C12.59 0.32, 67.03 0.41, 80.79 0.18 M0.58 -0.34 C14.72 0.25, 69.8 1.77, 83.16 1.82" stroke="#000000" stroke-width="1" fill="none"></path></g></g><mask></mask><g stroke-linecap="round"><g transform="translate(34.20856101958702 1586.1492907799725) rotate(0 40.43013195924857 0.6722420421957622)"><path d="M0.46 -0.64 C13.89 -0.45, 68.27 -0.18, 81.61 0.05 M-0.75 1.64 C12.44 2.12, 66.81 2.08, 80.76 1.61" stroke="#000000" stroke-width="1" fill="none"></path></g></g><mask></mask><g stroke-linecap="round" transform="translate(152.12256626173104 1455.7518911394789) rotate(0 47.06349206349199 50.714285714285666)"><path d="M23.53 0 M23.53 0 C33.78 0.34, 41.94 1.53, 70.6 0 M23.53 0 C37.08 0.67, 53.08 0.14, 70.6 0 M70.6 0 C84.37 1.5, 94.43 8.79, 94.13 23.53 M70.6 0 C85.58 0.52, 93.51 8.01, 94.13 23.53 M94.13 23.53 C92.76 40.59, 93.45 53.75, 94.13 77.9 M94.13 23.53 C93.91 40.26, 93.52 54.83, 94.13 77.9 M94.13 77.9 C94.62 92.98, 84.42 102.81, 70.6 101.43 M94.13 77.9 C92.24 94.54, 85.84 103.33, 70.6 101.43 M70.6 101.43 C56 101.36, 38.56 99.46, 23.53 101.43 M70.6 101.43 C56.88 102.33, 43.05 101.11, 23.53 101.43 M23.53 101.43 C8.49 101.8, 1.4 93.28, 0 77.9 M23.53 101.43 C5.9 101.53, 0.66 93.31, 0 77.9 M0 77.9 C-1.47 57.51, -1.3 38.11, 0 23.53 M0 77.9 C-0.01 61.29, -0.27 45.13, 0 23.53 M0 23.53 C-0.42 9.41, 7.52 -0.12, 23.53 0 M0 23.53 C0.17 6.92, 7.2 0.71, 23.53 0" stroke="#000000" stroke-width="1" fill="none"></path></g><g stroke-linecap="round"><g transform="translate(159.18605832522263 1572.1804625680502) rotate(0 40.79729080033886 -0.1155757808587623)"><path d="M0.18 0.05 C13.53 0.29, 66.99 0.6, 80.53 0.77 M-1.18 -0.97 C12.5 -1.02, 69.12 -1, 82.78 -0.95" stroke="#000000" stroke-width="1" fill="none"></path></g></g><mask></mask><g stroke-linecap="round"><g transform="translate(155.0657038767293 1585.4259311909047) rotate(0 40.406298001850246 0.36288230954073697)"><path d="M0.05 -0.9 C13.86 -0.92, 68.45 -0.03, 82.19 0.04 M-1.38 1.25 C12.39 1.42, 67.7 1.7, 81.65 1.6" stroke="#000000" stroke-width="1" fill="none"></path></g></g><mask></mask><g stroke-linecap="round" transform="translate(260.6939948331595 1458.9707137911557) rotate(0 47.06349206349199 50.714285714285666)"><path d="M23.53 0 M23.53 0 C39.64 0.42, 54.99 -0.39, 70.6 0 M23.53 0 C34.16 -1.42, 45.6 -0.31, 70.6 0 M70.6 0 C87.23 -0.61, 94.58 7.31, 94.13 23.53 M70.6 0 C86.45 -0.14, 93.2 6.91, 94.13 23.53 M94.13 23.53 C92.66 36.61, 92.88 51.71, 94.13 77.9 M94.13 23.53 C93.86 41.18, 94.23 57.4, 94.13 77.9 M94.13 77.9 C95.51 91.95, 87.12 101.04, 70.6 101.43 M94.13 77.9 C96.03 94.61, 84.51 101.09, 70.6 101.43 M70.6 101.43 C50.74 101.46, 33.31 101.83, 23.53 101.43 M70.6 101.43 C54.92 101.93, 40.2 102.31, 23.53 101.43 M23.53 101.43 C7.54 99.73, 0.09 94.16, 0 77.9 M23.53 101.43 C7.57 102.92, 1.53 95.16, 0 77.9 M0 77.9 C0.02 64.64, -1.23 52.01, 0 23.53 M0 77.9 C0.19 63.49, 0.88 49.34, 0 23.53 M0 23.53 C-0.12 8, 7.04 -0.56, 23.53 0 M0 23.53 C0.71 9.17, 9.38 0.02, 23.53 0" stroke="#000000" stroke-width="1" fill="none"></path></g><g stroke-linecap="round"><g transform="translate(267.7574868966511 1575.399285219727) rotate(0 41.10521246075092 -0.062295858848074204)"><path d="M0.77 0.04 C14.51 0.12, 69.2 -0.54, 82.5 -0.45 M-0.29 -0.98 C13.38 -0.67, 68.24 0.93, 82.12 0.86" stroke="#000000" stroke-width="1" fill="none"></path></g></g><mask></mask><g stroke-linecap="round"><g transform="translate(263.6371324481582 1588.6447538425814) rotate(0 39.79249694712854 0.0954385223301415)"><path d="M0.04 1.07 C13.69 0.8, 67.32 -0.9, 80.98 -0.88 M-1.4 0.59 C12.13 0.38, 65.97 0.38, 79.8 0.19" stroke="#000000" stroke-width="1" fill="none"></path></g></g><mask></mask><g stroke-linecap="round" transform="translate(383.55113769030214 1458.2473542020878) rotate(0 47.06349206349199 50.714285714285666)"><path d="M23.53 0 M23.53 0 C39.91 -1.89, 58.77 1.55, 70.6 0 M23.53 0 C37.66 0.12, 51.17 -0.13, 70.6 0 M70.6 0 C85.75 0.14, 94.01 7.04, 94.13 23.53 M70.6 0 C85.35 -1.32, 95.35 7.32, 94.13 23.53 M94.13 23.53 C95.87 35.46, 95.58 46.21, 94.13 77.9 M94.13 23.53 C93.33 36.86, 93.44 49.23, 94.13 77.9 M94.13 77.9 C93.74 95.24, 87.18 99.89, 70.6 101.43 M94.13 77.9 C93.79 95.46, 86.29 101.9, 70.6 101.43 M70.6 101.43 C61.25 101.6, 52.96 101.87, 23.53 101.43 M70.6 101.43 C59.01 101.36, 45.18 101.56, 23.53 101.43 M23.53 101.43 C8.42 101.19, 1.29 94.92, 0 77.9 M23.53 101.43 C9.41 100.16, -0.64 92.5, 0 77.9 M0 77.9 C0.7 61.16, -0.37 44.7, 0 23.53 M0 77.9 C-0.05 61.01, 0.19 43.83, 0 23.53 M0 23.53 C-0.56 8.46, 8.99 1.34, 23.53 0 M0 23.53 C0.02 7.52, 9.96 -1.95, 23.53 0" stroke="#000000" stroke-width="1" fill="none"></path></g><g stroke-linecap="round"><g transform="translate(390.61462975379374 1574.675925630659) rotate(0 40.79033449265569 0.20539093062677694)"><path d="M-0.45 -0.88 C13.22 -0.86, 68.39 1.23, 82.03 1.18 M1.52 1.27 C15.07 1.5, 68.21 -0.03, 81.39 -0.32" stroke="#000000" stroke-width="1" fill="none"></path></g></g><mask></mask><g stroke-linecap="round"><g transform="translate(386.4942753053004 1587.9213942535137) rotate(0 40.864866413654966 0.6790735586407664)"><path d="M-0.88 0.6 C12.71 0.67, 69.08 -0.09, 82.61 -0.04 M0.86 -0.13 C14.3 0.18, 68.67 1.62, 82.29 1.48" stroke="#000000" stroke-width="1" fill="none"></path></g></g><mask></mask><g stroke-linecap="round"><g transform="translate(31.919138872712892 1750.259259973462) rotate(0 40.42282596923806 0.01882769577207455)"><path d="M0.6 1.18 C14.24 1.14, 67.77 -0.98, 81.39 -1.15 M-0.55 0.76 C12.97 0.9, 66.66 -0.35, 80.42 -0.21" stroke="#000000" stroke-width="1" fill="none"></path></g></g><mask></mask><g stroke-linecap="round" transform="translate(147.71278966636356 1633.1073289558224) rotate(0 47.06349206349199 50.714285714285666)"><path d="M23.53 0 M23.53 0 C34.13 -2.37, 46.35 -0.17, 70.6 0 M23.53 0 C39.61 -0.03, 56.17 -0.51, 70.6 0 M70.6 0 C85.47 -1.14, 95.19 7.39, 94.13 23.53 M70.6 0 C84.26 -0.14, 92.36 9.89, 94.13 23.53 M94.13 23.53 C93.18 41.42, 93.93 56.47, 94.13 77.9 M94.13 23.53 C93.49 44.42, 94.13 62.89, 94.13 77.9 M94.13 77.9 C93.84 95.22, 86.29 101.84, 70.6 101.43 M94.13 77.9 C91.94 93.51, 84.71 101.78, 70.6 101.43 M70.6 101.43 C54.53 102.25, 40.38 103.01, 23.53 101.43 M70.6 101.43 C57.47 101.33, 44.42 102.12, 23.53 101.43 M23.53 101.43 C9.21 100.32, -0.56 92.64, 0 77.9 M23.53 101.43 C7.7 101.48, -1.59 94.4, 0 77.9 M0 77.9 C0.29 63.28, 1.67 49.18, 0 23.53 M0 77.9 C-0.32 62.23, 0.53 46.61, 0 23.53 M0 23.53 C0.01 7.56, 9.68 -1.69, 23.53 0 M0 23.53 C1.63 8.95, 6.12 -0.16, 23.53 0" stroke="#000000" stroke-width="1" fill="none"></path></g><g stroke-linecap="round"><g transform="translate(154.77628172985516 1749.535900384394) rotate(0 40.4067417081485 0.3257884755782925)"><path d="M-0.04 -1.15 C13.58 -1.31, 68.66 0.05, 82.33 0.18 M-1.52 0.87 C11.97 1.43, 68.01 1.83, 81.85 1.81" stroke="#000000" stroke-width="1" fill="none"></path></g></g><mask></mask><g stroke-linecap="round"><g transform="translate(150.6559272813618 1762.7813690072485) rotate(0 40.23110398251029 -0.17962701538726833)"><path d="M-1.15 0.9 C12.26 1, 67.91 0.67, 81.61 0.57 M0.45 0.33 C13.61 0.08, 67.48 -1.49, 80.75 -1.25" stroke="#000000" stroke-width="1" fill="none"></path></g></g><mask></mask><g stroke-linecap="round" transform="translate(256.28421823779246 1636.3261516074995) rotate(0 47.06349206349199 50.714285714285666)"><path d="M23.53 0 M23.53 0 C37.81 0.6, 50.87 0.1, 70.6 0 M23.53 0 C35.99 -0.38, 48.67 0.56, 70.6 0 M70.6 0 C85.83 -1.76, 94.01 6.3, 94.13 23.53 M70.6 0 C88.33 0.46, 95.83 7.41, 94.13 23.53 M94.13 23.53 C92.39 37.55, 92.62 49.65, 94.13 77.9 M94.13 23.53 C93.81 38.64, 95.39 54.05, 94.13 77.9 M94.13 77.9 C94.54 91.69, 86.22 100.06, 70.6 101.43 M94.13 77.9 C94.48 94.16, 88.19 102.31, 70.6 101.43 M70.6 101.43 C59.71 101.21, 44.34 101.61, 23.53 101.43 M70.6 101.43 C55.79 102.42, 39.1 101.46, 23.53 101.43 M23.53 101.43 C6.9 101.3, 0.04 92.2, 0 77.9 M23.53 101.43 C8.66 100.53, -0.41 92.11, 0 77.9 M0 77.9 C-0.21 60.95, 0.26 43.43, 0 23.53 M0 77.9 C0.5 63.11, -0.31 49.24, 0 23.53 M0 23.53 C-1.69 9.26, 8.8 -1.5, 23.53 0 M0 23.53 C-0.16 7.5, 8.54 -1.77, 23.53 0" stroke="#000000" stroke-width="1" fill="none"></path></g><g stroke-linecap="round"><g transform="translate(263.3477103012836 1752.754723036071) rotate(0 39.93782171680988 -0.5895892477503821)"><path d="M0.18 0.57 C13.88 0.46, 67.57 0.35, 81.06 0.27 M-1.19 -0.18 C12.43 -0.74, 66.36 -1.98, 79.92 -1.71" stroke="#000000" stroke-width="1" fill="none"></path></g></g><mask></mask><g stroke-linecap="round"><g transform="translate(259.2273558527907 1766.0001916589254) rotate(0 40.55389616780377 -0.2796054421551162)"><path d="M0.57 -0.37 C14.04 -0.45, 68.21 -0.37, 81.7 -0.32 M-0.59 -1.61 C12.66 -1.53, 67.33 0.58, 80.89 1.05" stroke="#000000" stroke-width="1" fill="none"></path></g></g><mask></mask><g stroke-linecap="round"><g transform="translate(382.08449870993337 1765.2768320698574) rotate(0 40.36968499618979 0.5184842620790278)"><path d="M-0.37 0.27 C13.12 0.19, 67.49 0.21, 81.11 0.09 M1.64 -0.63 C14.93 -0.55, 66.84 1.47, 79.99 1.67" stroke="#000000" stroke-width="1" fill="none"></path></g></g><mask></mask><g stroke-linecap="round" transform="translate(29.265423404587864 1634.3233197109075) rotate(0 47.06349206349199 50.714285714285666)"><path d="M23.53 0 M23.53 0 C39.35 0.04, 56.12 -0.91, 70.6 0 M23.53 0 C35.52 -1.13, 47.91 -1.02, 70.6 0 M70.6 0 C88.06 0.4, 95.61 7.47, 94.13 23.53 M70.6 0 C84.73 0.56, 93.44 5.7, 94.13 23.53 M94.13 23.53 C93.29 45.25, 94.58 62.11, 94.13 77.9 M94.13 23.53 C94.78 38.1, 94.54 53.89, 94.13 77.9 M94.13 77.9 C94.43 94.08, 87.94 102.19, 70.6 101.43 M94.13 77.9 C93.23 94.32, 86.71 103.04, 70.6 101.43 M70.6 101.43 C57.76 101.21, 45.07 102.78, 23.53 101.43 M70.6 101.43 C52.79 101.23, 35.95 100.61, 23.53 101.43 M23.53 101.43 C8.55 100.65, -0.36 92.3, 0 77.9 M23.53 101.43 C8.06 100.95, 1.8 93.21, 0 77.9 M0 77.9 C-0.6 62.53, 1.11 47.28, 0 23.53 M0 77.9 C-0.77 62.26, 0.56 44.45, 0 23.53 M0 23.53 C-0.14 7.55, 8.44 -1.54, 23.53 0 M0 23.53 C1.42 8.95, 9.4 -2.22, 23.53 0" stroke="#000000" stroke-width="1" fill="none"></path></g><g stroke-linecap="round"><g transform="translate(36.32891546807946 1750.7518911394789) rotate(0 40.518014695229226 -0.05658967897295497)"><path d="M-0.32 0.09 C13.3 -0.04, 67.81 -0.35, 81.36 -0.48 M1.71 -0.91 C15.2 -0.9, 67.34 0.6, 80.37 0.8" stroke="#000000" stroke-width="1" fill="none"></path></g></g><mask></mask><g stroke-linecap="round"><g transform="translate(34.20856101958657 1763.9973597623332) rotate(0 39.80914268754816 -0.1773523092101641)"><path d="M0.09 -0.07 C13.53 -0.1, 67.5 -0.6, 80.95 -0.48 M-1.33 -1.15 C11.89 -0.99, 66.25 0.83, 79.74 0.8" stroke="#000000" stroke-width="1" fill="none"></path></g></g><mask></mask><g stroke-linecap="round" transform="translate(372.12256626173104 1637.1804625680504) rotate(0 47.06349206349199 50.714285714285666)"><path d="M23.53 0 M23.53 0 C35.58 -0.78, 48.1 1.09, 70.6 0 M23.53 0 C35.8 0.92, 49.82 0.77, 70.6 0 M70.6 0 C85.9 -1.35, 94.62 7.24, 94.13 23.53 M70.6 0 C84.14 1.59, 92.24 8.8, 94.13 23.53 M94.13 23.53 C93.03 38.5, 96.21 54.05, 94.13 77.9 M94.13 23.53 C92.93 41.11, 93.86 59.22, 94.13 77.9 M94.13 77.9 C94.89 92.8, 86.92 101.8, 70.6 101.43 M94.13 77.9 C95.73 93.24, 84.33 101.53, 70.6 101.43 M70.6 101.43 C56.46 103.1, 38.54 101.18, 23.53 101.43 M70.6 101.43 C58 101.79, 46.39 101.26, 23.53 101.43 M23.53 101.43 C6.56 101.62, -0.42 95.15, 0 77.9 M23.53 101.43 C7.47 101.29, 0.17 92.66, 0 77.9 M0 77.9 C1.17 63.12, -0.45 50.15, 0 23.53 M0 77.9 C-1.14 66.12, -0.53 54.78, 0 23.53 M0 23.53 C-1.54 9.08, 8.8 1.36, 23.53 0 M0 23.53 C-2.22 9.15, 7.04 -1.82, 23.53 0" stroke="#000000" stroke-width="1" fill="none"></path></g><g stroke-linecap="round"><g transform="translate(379.18605832522263 1753.6090339966217) rotate(0 41.305260911960374 -0.5943380829078251)"><path d="M-0.48 -0.48 C12.96 -0.37, 67.14 0.73, 80.74 0.64 M1.46 -1.79 C15.29 -2.01, 69.96 -1.4, 83.09 -1.15" stroke="#000000" stroke-width="1" fill="none"></path></g></g><mask></mask><g stroke-linecap="round"><g transform="translate(377.0657038767293 1766.854502619476) rotate(0 40.79151468473884 0.4710083965404692)"><path d="M-0.48 -0.69 C13.2 -0.65, 68.59 -0.38, 82.07 -0.27 M1.46 1.57 C15.06 1.83, 67.91 1.18, 81.46 1.12" stroke="#000000" stroke-width="1" fill="none"></path></g></g><mask></mask><g stroke-linecap="round" transform="translate(645.2962884857807 37.74145507812477) rotate(0 233 262.0555555555556)"><path d="M32 0 M32 0 C160.61 -0.36, 288.95 1.35, 434 0 M32 0 C174.99 -0.48, 318.77 -1, 434 0 M434 0 C456.25 1.78, 466.13 10.14, 466 32 M434 0 C455.86 1.26, 464.33 11.76, 466 32 M466 32 C464.2 128.94, 463.59 225.45, 466 492.11 M466 32 C467.61 184.77, 468.29 336.49, 466 492.11 M466 492.11 C464.16 511.86, 454.92 524.92, 434 524.11 M466 492.11 C465.88 511.91, 456.29 522.43, 434 524.11 M434 524.11 C333.19 523.06, 231.46 521.91, 32 524.11 M434 524.11 C322.04 525.31, 210.25 525.81, 32 524.11 M32 524.11 C10.82 522.42, 1.89 515.06, 0 492.11 M32 524.11 C12.45 523.05, 0.68 513.39, 0 492.11 M0 492.11 C0.59 331.2, 0.32 169.72, 0 32 M0 492.11 C1.87 328.66, 1.42 164.49, 0 32 M0 32 C-0.03 11.09, 11.97 -0.18, 32 0 M0 32 C-1.06 10.72, 9.55 1.75, 32 0" stroke="#000000" stroke-width="1" fill="none"></path></g><g stroke-linecap="round" transform="translate(651.5740662635583 92.5516841827876) rotate(0 224.44444444444446 204.04761904761907)"><path d="M32 0 M32 0 C138.82 2.58, 248.37 0.88, 416.89 0 M32 0 C159.1 -1.14, 286.3 -0.27, 416.89 0 M416.89 0 C438.35 -0.53, 449.35 11.76, 448.89 32 M416.89 0 C436.56 1.1, 446.8 8.83, 448.89 32 M448.89 32 C447.69 159.96, 449.09 286.67, 448.89 376.1 M448.89 32 C447.95 155.46, 446.81 278.83, 448.89 376.1 M448.89 376.1 C448.48 398.24, 438.11 406.76, 416.89 408.1 M448.89 376.1 C449.85 395.75, 437.1 407.39, 416.89 408.1 M416.89 408.1 C320.54 407.2, 224.77 407.97, 32 408.1 M416.89 408.1 C279.72 408.37, 143.59 407.39, 32 408.1 M32 408.1 C12.56 409.71, 1.55 396.5, 0 376.1 M32 408.1 C11.35 408.04, 1.17 396.54, 0 376.1 M0 376.1 C-0.15 266.52, 1.32 154.91, 0 32 M0 376.1 C-1.01 285.81, -0.53 195.35, 0 32 M0 32 C1.3 10.49, 9.74 0.05, 32 0 M0 32 C-1.12 12.41, 9.62 1.92, 32 0" stroke="#000000" stroke-width="1" fill="none"></path></g><g stroke-linecap="round"><g transform="translate(644.9073995968918 76.51993815104174) rotate(0 232.59421617368025 -1.0133025008357208)"><path d="M-1.05 0.96 C76.72 0.61, 388.41 -2.33, 466.23 -2.99 M0.61 0.42 C78.31 0.28, 388.19 -1.44, 465.64 -1.85" stroke="#000000" stroke-width="1" fill="none"></path></g></g><mask></mask><g stroke-linecap="round" transform="translate(911.7327964222882 224.55555555555543) rotate(0 81.11111111111109 81.98412698412702)"><path d="M32 0 M32 0 C55.92 0.91, 77.28 1.53, 130.22 0 M32 0 C70.44 0.81, 107.7 0.74, 130.22 0 M130.22 0 C149.74 -1.59, 163.59 10.49, 162.22 32 M130.22 0 C153.14 -1.73, 164.34 11.38, 162.22 32 M162.22 32 C164.76 72.53, 162.15 107.98, 162.22 131.97 M162.22 32 C161.96 53.39, 162.44 75.38, 162.22 131.97 M162.22 131.97 C161.25 152.69, 150.54 164.43, 130.22 163.97 M162.22 131.97 C162.43 152.48, 149.41 163.46, 130.22 163.97 M130.22 163.97 C103.35 161.73, 78.44 163.55, 32 163.97 M130.22 163.97 C109.85 164.3, 88.23 164.74, 32 163.97 M32 163.97 C11.68 163.2, 0.4 152.79, 0 131.97 M32 163.97 C11.79 162.7, 0.83 154.59, 0 131.97 M0 131.97 C2.15 108.72, 0.86 88.41, 0 32 M0 131.97 C-1.11 99.88, -1.14 68.49, 0 32 M0 32 C-0.91 12.34, 9.14 -1.14, 32 0 M0 32 C0.87 8.77, 9.4 0.2, 32 0" stroke="#000000" stroke-width="1" fill="none"></path></g><g stroke-linecap="round"><g transform="translate(645.7010503905424 510.1111111111111) rotate(0 230.9775590356025 -1.6646130561373056)"><path d="M0.42 0.18 C77.1 0.02, 383.46 -1.28, 460.42 -1.67 M-0.82 -0.78 C76.22 -1.22, 385.64 -3.5, 462.77 -3.51" stroke="#000000" stroke-width="1" fill="none"></path></g></g><mask></mask><g transform="translate(769.0343837238754 10) rotate(0 53 12.5)"><text x="0" y="18" font-family="Virgil, Segoe UI Emoji" font-size="20px" fill="#000000" text-anchor="start" style="white-space: pre;" direction="ltr">Login Page</text></g><g stroke-linecap="round" transform="translate(664.71339867306 251.64056880890365) rotate(0 107.14285714285711 15.714285714285694)"><path d="M7.86 0 M7.86 0 C61.31 -0.43, 117.65 -2.21, 206.43 0 M7.86 0 C54.21 -0.21, 101.19 -1.13, 206.43 0 M206.43 0 C213.03 0.93, 214.95 1.63, 214.29 7.86 M206.43 0 C212.06 -1.37, 216.29 3.6, 214.29 7.86 M214.29 7.86 C215.32 10.07, 214.5 14.62, 214.29 23.57 M214.29 7.86 C213.89 13.55, 214.09 18.29, 214.29 23.57 M214.29 23.57 C213.93 28.21, 213.53 31.85, 206.43 31.43 M214.29 23.57 C214.23 27.94, 212.54 29.47, 206.43 31.43 M206.43 31.43 C156.59 30.26, 106.25 29.79, 7.86 31.43 M206.43 31.43 C130.73 32.48, 54.28 33.29, 7.86 31.43 M7.86 31.43 C2.5 32.73, -1.13 29.96, 0 23.57 M7.86 31.43 C1.04 31.37, -2.2 29.32, 0 23.57 M0 23.57 C0.25 18.32, -0.18 11.05, 0 7.86 M0 23.57 C-0.49 19.9, -0.41 16.41, 0 7.86 M0 7.86 C-0.75 3.96, 2.02 -0.49, 7.86 0 M0 7.86 C0.96 2.19, 1.61 1.41, 7.86 0" stroke="#000000" stroke-width="1" fill="none"></path></g><g stroke-linecap="round" transform="translate(666.1419701016314 301.6405688089036) rotate(0 107.14285714285711 15.714285714285694)"><path d="M7.86 0 M7.86 0 C55.72 -0.15, 101.56 -1.44, 206.43 0 M7.86 0 C57.83 -0.87, 108.51 -1.17, 206.43 0 M206.43 0 C210.82 0.7, 215.54 2.48, 214.29 7.86 M206.43 0 C213.7 0.22, 216.5 0.99, 214.29 7.86 M214.29 7.86 C213.51 12.96, 215.02 14.06, 214.29 23.57 M214.29 7.86 C213.9 11.62, 213.78 14.45, 214.29 23.57 M214.29 23.57 C215.37 30.28, 211.63 31.29, 206.43 31.43 M214.29 23.57 C214.34 27.64, 210.03 30.38, 206.43 31.43 M206.43 31.43 C144.37 31.45, 82.18 29.49, 7.86 31.43 M206.43 31.43 C137.27 31.4, 67.15 30.47, 7.86 31.43 M7.86 31.43 C1.93 29.81, -1.4 29.2, 0 23.57 M7.86 31.43 C1.22 31.67, -0.36 28.75, 0 23.57 M0 23.57 C0.66 19.11, -0.5 18.1, 0 7.86 M0 23.57 C0.48 20.68, 0.38 17.21, 0 7.86 M0 7.86 C-1.05 1.58, 1.91 -1.95, 7.86 0 M0 7.86 C-0.75 0.79, 0.4 0.49, 7.86 0" stroke="#000000" stroke-width="1" fill="none"></path></g><g stroke-linecap="round" transform="translate(677.5705415302027 363.06914023747504) rotate(0 35 12.142857142857167)"><path d="M48.53 0.63 C55.27 1.36, 62.12 4.12, 65.62 6.47 C69.13 8.83, 71.09 12.08, 69.55 14.73 C68 17.39, 62.23 20.86, 56.35 22.39 C50.46 23.91, 41.73 24.17, 34.25 23.88 C26.77 23.59, 17.04 22.18, 11.46 20.65 C5.88 19.11, 1.81 17.14, 0.74 14.64 C-0.33 12.15, 1.07 7.99, 5.04 5.68 C9 3.37, 16.63 1.55, 24.53 0.77 C32.43 -0.01, 47.34 0.77, 52.46 1.02 C57.57 1.27, 55.52 2, 55.21 2.28 M23.68 1.74 C30.1 0.23, 40.31 -1.48, 47.19 -0.73 C54.08 0.02, 61.33 3.89, 65.01 6.25 C68.68 8.61, 70.19 10.99, 69.24 13.43 C68.3 15.86, 64.95 18.86, 59.35 20.86 C53.74 22.85, 43.07 25.27, 35.61 25.42 C28.14 25.57, 20.23 23.37, 14.57 21.75 C8.92 20.14, 3.4 18.49, 1.66 15.71 C-0.08 12.94, 0.95 7.73, 4.13 5.08 C7.32 2.43, 17.8 0.32, 20.78 -0.2 C23.77 -0.72, 21.62 1.54, 22.03 1.95" stroke="#000000" stroke-width="1" fill="none"></path></g></svg>