<svg xmlns="http://www.w3.org/2000/svg" xmlns:xlink="http://www.w3.org/1999/xlink" width="500" zoomAndPan="magnify" viewBox="0 0 375 374.999991" height="500" preserveAspectRatio="xMidYMid meet" version="1.0"><defs><g/><clipPath id="b031f73973"><path d="M 47.332031 179.007812 L 334.152344 179.007812 L 334.152344 202.476562 L 47.332031 202.476562 Z M 47.332031 179.007812 " clip-rule="nonzero"/></clipPath></defs><g fill="#231f20" fill-opacity="1"><g transform="translate(19.938824, 232.008926)"><g><path d="M 76.628906 -89.796875 L 6.519531 -89.796875 L 6.519531 -52.015625 L 7.316406 -52.015625 C 10.375 -56.40625 12.90625 -60.265625 15.300781 -63.589844 C 27.671875 -82.878906 30.863281 -87.402344 47.09375 -87.402344 L 48.160156 -87.402344 L 4.390625 -0.929688 L 4.390625 0 L 74.765625 0 L 74.765625 -37.78125 L 73.96875 -37.78125 C 71.039062 -33.390625 68.378906 -29.535156 66.117188 -26.207031 C 53.613281 -6.917969 50.421875 -2.394531 34.191406 -2.394531 L 32.460938 -2.394531 L 76.628906 -88.867188 Z M 76.628906 -89.796875 "/></g></g></g><g fill="#231f20" fill-opacity="1"><g transform="translate(97.096842, 232.008926)"><g><path d="M 89.398438 -89.796875 L 49.621094 -89.796875 L 49.621094 -89 L 56.539062 -81.550781 L 56.539062 -44.699219 L 37.117188 -44.699219 L 37.117188 -81.550781 L 43.902344 -89 L 43.902344 -89.796875 L 4.257812 -89.796875 L 4.257812 -89 L 11.042969 -81.550781 L 11.042969 -8.25 L 4.257812 -0.796875 L 4.257812 0 L 43.902344 0 L 43.902344 -0.796875 L 37.117188 -8.25 L 37.117188 -42.304688 L 56.539062 -42.304688 L 56.539062 -8.25 L 49.621094 -0.796875 L 49.621094 0 L 89.398438 0 L 89.398438 -0.796875 L 82.480469 -8.25 L 82.480469 -81.550781 L 89.398438 -89 Z M 89.398438 -89.796875 "/></g></g></g><g fill="#231f20" fill-opacity="1"><g transform="translate(186.626781, 232.008926)"><g><path d="M 77.558594 -37.78125 C 74.632812 -33.390625 72.238281 -29.535156 70.109375 -26.207031 C 58.136719 -6.917969 55.078125 -2.394531 39.511719 -2.394531 L 37.382812 -2.394531 L 37.382812 -44.167969 L 38.714844 -44.167969 C 45.898438 -44.167969 51.21875 -40.976562 59.601562 -25.808594 L 60.398438 -25.808594 L 60.398438 -64.789062 L 59.601562 -64.789062 C 51.085938 -48.558594 45.898438 -46.429688 38.714844 -46.429688 L 37.382812 -46.429688 L 37.382812 -87.402344 L 38.714844 -87.402344 C 54.277344 -87.402344 57.339844 -82.878906 69.3125 -63.589844 L 76.761719 -52.015625 L 77.558594 -52.015625 L 77.558594 -89.796875 L 4.257812 -89.796875 L 4.257812 -89 L 11.441406 -82.082031 L 11.441406 -7.714844 L 4.257812 -0.796875 L 4.257812 0 L 78.359375 0 L 78.359375 -37.78125 Z M 77.558594 -37.78125 "/></g></g></g><g fill="#231f20" fill-opacity="1"><g transform="translate(268.839999, 232.008926)"><g><path d="M 75.695312 -114.277344 L 48.160156 -114.277344 L 42.4375 -93.257812 L 43.371094 -93.257812 L 75.695312 -113.480469 Z M 77.558594 -37.78125 C 74.632812 -33.390625 72.238281 -29.535156 70.109375 -26.207031 C 58.136719 -6.917969 55.078125 -2.394531 39.511719 -2.394531 L 37.382812 -2.394531 L 37.382812 -44.167969 L 38.714844 -44.167969 C 45.898438 -44.167969 51.21875 -40.976562 59.601562 -25.808594 L 60.398438 -25.808594 L 60.398438 -64.789062 L 59.601562 -64.789062 C 51.085938 -48.558594 45.898438 -46.429688 38.714844 -46.429688 L 37.382812 -46.429688 L 37.382812 -87.402344 L 38.714844 -87.402344 C 54.277344 -87.402344 57.339844 -82.878906 69.3125 -63.589844 L 76.761719 -52.015625 L 77.558594 -52.015625 L 77.558594 -89.796875 L 4.257812 -89.796875 L 4.257812 -89 L 11.441406 -82.082031 L 11.441406 -7.714844 L 4.257812 -0.796875 L 4.257812 0 L 78.359375 0 L 78.359375 -37.78125 Z M 77.558594 -37.78125 "/></g></g></g><g clip-path="url(#b031f73973)"><path fill="#fbfaf9" d="M 47.332031 179.007812 L 334.335938 179.007812 L 334.335938 203.066406 L 47.332031 203.066406 Z M 47.332031 179.007812 " fill-opacity="1" fill-rule="nonzero"/></g><g fill="#231f20" fill-opacity="1"><g transform="translate(118.772831, 192.782625)"><g><path d="M 5.882812 0.265625 C 7.851562 0.265625 9.472656 -0.488281 10.304688 -1.679688 L 10.316406 -1.679688 L 10.433594 0 L 11.730469 0 L 11.730469 -4.585938 L 4.226562 -4.585938 L 4.226562 -3.554688 L 10.179688 -3.554688 C 10.144531 -2.0625 8.429688 -0.925781 6.265625 -0.925781 C 3.808594 -0.925781 2.050781 -2.234375 2.050781 -4.074219 C 2.050781 -5.941406 3.671875 -7.25 5.953125 -7.238281 C 7.433594 -7.238281 8.824219 -6.578125 9.148438 -5.640625 L 10.640625 -5.976562 C 10.214844 -7.445312 8.210938 -8.464844 5.953125 -8.464844 C 2.722656 -8.464844 0.441406 -6.636719 0.441406 -4.042969 C 0.441406 -1.527344 2.699219 0.265625 5.882812 0.265625 Z M 5.882812 0.265625 "/></g></g></g><g fill="#231f20" fill-opacity="1"><g transform="translate(140.175222, 192.782625)"><g><path d="M 4.074219 0 L 5.6875 0 L 5.6875 -2.976562 L 9.714844 -8.210938 L 7.875 -8.210938 L 4.886719 -4.203125 L 4.875 -4.203125 L 1.839844 -8.210938 L -0.0117188 -8.210938 L 4.074219 -2.976562 Z M 4.074219 0 "/></g></g></g><g fill="#231f20" fill-opacity="1"><g transform="translate(159.157772, 192.782625)"><g><path d="M 0.578125 0 L 2.128906 0 L 2.128906 -6.53125 L 2.152344 -6.53125 L 5.71875 0 L 7.332031 0 L 10.875 -6.53125 L 10.898438 -6.53125 L 10.898438 0 L 12.449219 0 L 12.449219 -8.210938 L 10.191406 -8.210938 L 6.519531 -1.449219 L 6.507812 -1.449219 L 2.8125 -8.210938 L 0.578125 -8.210938 Z M 0.578125 0 "/></g></g></g><g fill="#231f20" fill-opacity="1"><g transform="translate(181.451694, 192.782625)"><g/></g></g><g fill="#231f20" fill-opacity="1"><g transform="translate(194.066235, 192.782625)"><g><path d="M 0.578125 0 L 2.1875 0 L 2.1875 -3.683594 L 8.3125 -3.683594 L 8.3125 0 L 9.914062 0 L 9.914062 -8.210938 L 8.3125 -8.210938 L 8.3125 -4.898438 L 2.1875 -4.898438 L 2.1875 -8.210938 L 0.578125 -8.210938 Z M 0.578125 0 "/></g></g></g><g fill="#231f20" fill-opacity="1"><g transform="translate(213.824521, 192.782625)"><g><path d="M 5.199219 0.265625 C 8.082031 0.265625 9.945312 -1.167969 9.945312 -3.742188 L 9.945312 -8.210938 L 8.335938 -8.210938 L 8.335938 -3.785156 C 8.335938 -1.945312 7.097656 -1.019531 5.210938 -1.019531 C 3.335938 -1.019531 2.085938 -1.945312 2.085938 -3.785156 L 2.085938 -8.210938 L 0.464844 -8.210938 L 0.464844 -3.742188 C 0.464844 -1.167969 2.328125 0.265625 5.199219 0.265625 Z M 5.199219 0.265625 "/></g></g></g><g fill="#231f20" fill-opacity="1"><g transform="translate(233.501766, 192.782625)"><g><path d="M 0.578125 0 L 6.878906 0 C 8.695312 0 9.878906 -0.902344 9.878906 -2.28125 C 9.878906 -3.21875 9.265625 -3.984375 8.324219 -4.203125 L 8.324219 -4.214844 C 9.125 -4.457031 9.644531 -5.140625 9.644531 -5.976562 C 9.644531 -7.332031 8.535156 -8.210938 6.832031 -8.210938 L 0.578125 -8.210938 Z M 2.1875 -4.726562 L 2.1875 -7.121094 L 6.4375 -7.121094 C 7.410156 -7.121094 8.035156 -6.660156 8.035156 -5.917969 C 8.035156 -5.1875 7.410156 -4.726562 6.449219 -4.726562 Z M 2.1875 -1.089844 L 2.1875 -3.71875 L 6.460938 -3.71875 C 7.550781 -3.71875 8.269531 -3.183594 8.269531 -2.410156 C 8.269531 -1.609375 7.550781 -1.089844 6.460938 -1.089844 Z M 2.1875 -1.089844 "/></g></g></g><g fill="#231f20" fill-opacity="1"><g transform="translate(252.882197, 192.782625)"><g/></g></g></svg>